<?xml version="1.0" encoding="utf-8"?>
<!-- Generator: Adobe Illustrator 21.1.0, SVG Export Plug-In . SVG Version: 6.00 Build 0)  -->
<svg version="1.1" id="Layer_1" xmlns="http://www.w3.org/2000/svg" xmlns:xlink="http://www.w3.org/1999/xlink" x="0px" y="0px"
	 viewBox="0 0 552 153.5" style="enable-background:new 0 0 552 153.5;" xml:space="preserve">
<style type="text/css">
	.st0{fill:#636363;}
	.st1{font-family:'Unna-BoldItalic';}
	.st2{font-size:32px;}
	.st3{fill:#6C54A3;}
	.st4{font-family:'Montserrat-Black';}
	.st5{font-size:105.2175px;}
	.st6{fill:#F6B40F;}
</style>
<title>Group 8</title>
<desc>Created with Sketch.</desc>
<text transform="matrix(1 0 0 1 1 26)" class="st0 st1 st2">“Dr. Arrick and the team </text>
<text transform="matrix(1 0 0 1 1 59)" class="st0 st1 st2">at Smiles at Glenwood is</text>
<text transform="matrix(1 0 0 1 6.9287 142.2598)" class="st3 st4 st5">Awesome</text>
<g id="Group-6" transform="translate(0.000000, 0.331474)">
	<path id="Fill-4" class="st6" d="M336.9,57.2c0.3-1.8,0.6-3.7,0.9-5.6c0.3-1.9,0.6-3.9,1-5.8c0.1-0.5,0-0.8-0.4-1.2
		c-2.5-2.5-5-5-7.5-7.4c-0.1-0.1-0.3-0.3-0.4-0.4c-0.2-0.4-0.6-1-0.4-1.3c0.1-0.4,0.7-0.7,1.1-0.8c2-0.4,4-0.6,6-0.9
		c1.7-0.3,3.5-0.5,5.2-0.8c0.3,0,0.6-0.3,0.7-0.5c1.6-3.2,3.2-6.5,4.8-9.7c0.3-0.6,0.5-1.4,1.4-1.4c0.8,0,1,0.8,1.3,1.4
		c1.6,3.2,3.2,6.5,4.8,9.7c0.1,0.3,0.5,0.5,0.8,0.6c3.6,0.6,7.2,1.1,10.8,1.6c0.2,0,0.5,0.1,0.7,0.2c0.8,0.3,1,0.9,0.5,1.6
		c-0.5,0.6-1.1,1.2-1.7,1.8c-2.2,2.2-4.3,4.3-6.5,6.4c-0.4,0.4-0.5,0.7-0.4,1.2c0.6,3.6,1.2,7.2,1.8,10.9c0.1,0.4,0.1,0.8,0,1.1
		c-0.1,0.6-0.6,0.8-1.1,0.7c-0.3-0.1-0.6-0.2-1-0.4c-3.2-1.7-6.3-3.4-9.5-5.1c-0.4-0.2-0.7-0.2-1.2,0c-3.1,1.7-6.3,3.4-9.5,5.1
		c-0.2,0.1-0.4,0.2-0.7,0.3C337.5,58.7,336.9,58.3,336.9,57.2"/>
</g>
<g id="Group-12" transform="translate(45.641504, 0.331474)">
	<path id="Fill-10" class="st6" d="M337,57.2c0.3-1.8,0.6-3.7,0.9-5.6c0.3-1.9,0.6-3.9,1-5.8c0.1-0.5,0-0.8-0.4-1.2
		c-2.5-2.5-5-5-7.5-7.4c-0.1-0.1-0.3-0.3-0.4-0.4c-0.2-0.4-0.6-1-0.4-1.3c0.1-0.4,0.7-0.7,1.1-0.8c2-0.4,4-0.6,6-0.9
		c1.7-0.3,3.5-0.5,5.2-0.8c0.3,0,0.6-0.3,0.7-0.5c1.6-3.2,3.2-6.5,4.8-9.7c0.3-0.6,0.5-1.4,1.4-1.4c0.8,0,1,0.8,1.3,1.4
		c1.6,3.2,3.2,6.5,4.8,9.7c0.1,0.3,0.5,0.5,0.8,0.6c3.6,0.6,7.2,1.1,10.8,1.6c0.2,0,0.5,0.1,0.7,0.2c0.8,0.3,1,0.9,0.5,1.6
		c-0.5,0.6-1.1,1.2-1.7,1.8c-2.2,2.2-4.3,4.3-6.5,6.4c-0.4,0.4-0.5,0.7-0.4,1.2c0.6,3.6,1.2,7.2,1.8,10.9c0.1,0.4,0.1,0.8,0,1.1
		c-0.1,0.6-0.6,0.8-1.1,0.7c-0.3-0.1-0.6-0.2-1-0.4c-3.2-1.7-6.3-3.4-9.5-5.1c-0.4-0.2-0.7-0.2-1.2,0c-3.1,1.7-6.3,3.4-9.5,5.1
		c-0.2,0.1-0.4,0.2-0.7,0.3C337.6,58.7,337,58.3,337,57.2"/>
</g>
<g id="Group-18" transform="translate(91.113462, 0.331474)">
	<path id="Fill-16" class="st6" d="M337.3,57.2c0.3-1.8,0.6-3.7,0.9-5.6c0.3-1.9,0.6-3.9,1-5.8c0.1-0.5,0-0.8-0.4-1.2
		c-2.5-2.5-5-5-7.5-7.4c-0.1-0.1-0.3-0.3-0.4-0.4c-0.2-0.4-0.6-1-0.4-1.3c0.1-0.4,0.7-0.7,1.1-0.8c2-0.4,4-0.6,6-0.9
		c1.7-0.3,3.5-0.5,5.2-0.8c0.3,0,0.6-0.3,0.7-0.5c1.6-3.2,3.2-6.5,4.8-9.7c0.3-0.6,0.5-1.4,1.4-1.4c0.8,0,1,0.8,1.3,1.4
		c1.6,3.2,3.2,6.5,4.8,9.7c0.1,0.3,0.5,0.5,0.8,0.6c3.6,0.6,7.2,1.1,10.8,1.6c0.2,0,0.5,0.1,0.7,0.2c0.8,0.3,1,0.9,0.5,1.6
		c-0.5,0.6-1.1,1.2-1.7,1.8c-2.2,2.2-4.3,4.3-6.5,6.4c-0.4,0.4-0.5,0.7-0.4,1.2c0.6,3.6,1.2,7.2,1.8,10.9c0.1,0.4,0.1,0.8,0,1.1
		c-0.1,0.6-0.6,0.8-1.1,0.7c-0.3-0.1-0.6-0.2-1-0.4c-3.2-1.7-6.3-3.4-9.5-5.1c-0.4-0.2-0.7-0.2-1.2,0c-3.1,1.7-6.3,3.4-9.5,5.1
		c-0.2,0.1-0.4,0.2-0.7,0.3C338,58.7,337.3,58.3,337.3,57.2"/>
</g>
<g id="Group-24" transform="translate(136.515152, 0.000000)">
	<path id="Fill-22" class="st6" d="M337.7,57.2c0.3-1.8,0.6-3.7,0.9-5.6c0.3-1.9,0.6-3.9,1-5.8c0.1-0.5,0-0.8-0.4-1.2
		c-2.5-2.5-5-5-7.5-7.4c-0.1-0.1-0.3-0.3-0.4-0.4c-0.2-0.4-0.6-1-0.4-1.3c0.1-0.4,0.7-0.7,1.1-0.8c2-0.4,4-0.6,6-0.9
		c1.7-0.3,3.5-0.5,5.2-0.8c0.3,0,0.6-0.3,0.7-0.5c1.6-3.2,3.2-6.5,4.8-9.7c0.3-0.6,0.5-1.4,1.4-1.4c0.8,0,1,0.8,1.3,1.4
		c1.6,3.2,3.2,6.5,4.8,9.7c0.1,0.3,0.5,0.5,0.8,0.6c3.6,0.6,7.2,1.1,10.8,1.6c0.2,0,0.5,0.1,0.7,0.2c0.8,0.3,1,0.9,0.5,1.6
		c-0.5,0.6-1.1,1.2-1.7,1.8c-2.2,2.2-4.3,4.3-6.5,6.4c-0.4,0.4-0.5,0.7-0.4,1.2c0.6,3.6,1.2,7.2,1.8,10.9c0.1,0.4,0.1,0.8,0,1.1
		c-0.1,0.6-0.6,0.8-1.1,0.7c-0.3-0.1-0.6-0.2-1-0.4c-3.2-1.7-6.3-3.4-9.5-5.1c-0.4-0.2-0.7-0.2-1.2,0c-3.1,1.7-6.3,3.4-9.5,5.1
		c-0.2,0.1-0.4,0.2-0.7,0.3C338.3,58.7,337.7,58.3,337.7,57.2"/>
</g>
<g id="Group-24-Copy" transform="translate(179.343434, 0.000000)">
	<path id="Fill-22_1_" class="st6" d="M337.7,57.2c0.3-1.8,0.6-3.7,0.9-5.6c0.3-1.9,0.6-3.9,1-5.8c0.1-0.5,0-0.8-0.4-1.2
		c-2.5-2.5-5-5-7.5-7.4c-0.1-0.1-0.3-0.3-0.4-0.4c-0.2-0.4-0.6-1-0.4-1.3c0.1-0.4,0.7-0.7,1.1-0.8c2-0.4,4-0.6,6-0.9
		c1.7-0.3,3.5-0.5,5.2-0.8c0.3,0,0.6-0.3,0.7-0.5c1.6-3.2,3.2-6.5,4.8-9.7c0.3-0.6,0.5-1.4,1.4-1.4c0.8,0,1,0.8,1.3,1.4
		c1.6,3.2,3.2,6.5,4.8,9.7c0.1,0.3,0.5,0.5,0.8,0.6c3.6,0.6,7.2,1.1,10.8,1.6c0.2,0,0.5,0.1,0.7,0.2c0.8,0.3,1,0.9,0.5,1.6
		c-0.5,0.6-1.1,1.2-1.7,1.8c-2.2,2.2-4.3,4.3-6.5,6.4c-0.4,0.4-0.5,0.7-0.4,1.2c0.6,3.6,1.2,7.2,1.8,10.9c0.1,0.4,0.1,0.8,0,1.1
		c-0.1,0.6-0.6,0.8-1.1,0.7c-0.3-0.1-0.6-0.2-1-0.4c-3.2-1.7-6.3-3.4-9.5-5.1c-0.4-0.2-0.7-0.2-1.2,0c-3.1,1.7-6.3,3.4-9.5,5.1
		c-0.2,0.1-0.4,0.2-0.7,0.3C338.3,58.7,337.7,58.3,337.7,57.2"/>
</g>
</svg>
