<svg id="Layer_1" data-name="Layer 1" xmlns="http://www.w3.org/2000/svg" xmlns:xlink="http://www.w3.org/1999/xlink" width="560" height="245" viewBox="0 0 560 245"><defs><style>.cls-1{fill:none;clip-rule:evenodd;}.cls-2{clip-path:url(#clip-path);}.cls-3{fill:#6c54a3;}.cls-4{clip-path:url(#clip-path-2);}.cls-5{fill:#a28bd6;}.cls-6{clip-path:url(#clip-path-3);}.cls-7{clip-path:url(#clip-path-4);}.cls-8{fill:#3c3c3c;}</style><clipPath id="clip-path"><path class="cls-1" d="M523,112.27h13.75c.08-4.34-2.65-7.4-6.59-7.4C526.36,104.87,523.79,107.85,523,112.27Zm7-18.41c15.36,0,23.72,10.29,22.75,26.37H523.31c1.29,4.18,4.34,6.51,8.52,6.51a14.34,14.34,0,0,0,9.65-4.18l8.44,8.28c-4.58,5.07-11.18,7.88-19.46,7.88-14.63,0-23.56-8.84-23.56-22.27C506.9,102.78,516.15,93.86,530,93.86Zm-45.35,0c-13.83,0-22.91,9-22.91,22.59,0,13.43,9,22.27,22.75,22.27,9.65,0,17-4.1,20.42-11.34L492.27,121c-1.37,3.3-3.78,4.82-6.91,4.82-4.34,0-7.24-3.78-7.24-9.49,0-5.55,2.89-9.33,7.24-9.33a7.81,7.81,0,0,1,7,4.34l12.46-6.11C501.12,98,493.8,93.86,484.63,93.86Zm-43.9-.08c-6.11,0-10.85,2.57-13.91,7.4V94.42H410.58v43.74h16.24V116.53c0-5,2.73-8.44,7.16-8.52,3.78,0,6.27,2.73,6.27,7.08v23.07h16.24V110.42C456.49,100.29,450.06,93.78,440.73,93.78Zm-66.41,18.49h13.75c.08-4.34-2.65-7.4-6.59-7.4C377.7,104.87,375.13,107.85,374.32,112.27Zm7-18.41c15.36,0,23.72,10.29,22.75,26.37H374.65c1.29,4.18,4.34,6.51,8.52,6.51a14.34,14.34,0,0,0,9.65-4.18l8.44,8.28c-4.58,5.07-11.18,7.88-19.46,7.88-14.63,0-23.56-8.84-23.56-22.27C358.24,102.78,367.49,93.86,381.32,93.86Zm-30,44.3V78.5H335.09v59.66Zm-26.93,0V78.5H308.16v59.66Zm-52.9-25.89h13.75c.08-4.34-2.65-7.4-6.59-7.4C274.87,104.87,272.3,107.85,271.49,112.27Zm7-18.41c15.36,0,23.72,10.29,22.75,26.37H271.81c1.29,4.18,4.34,6.51,8.52,6.51a14.34,14.34,0,0,0,9.65-4.18l8.44,8.28c-4.58,5.07-11.18,7.88-19.46,7.88-14.63,0-23.56-8.84-23.56-22.27C255.41,102.78,264.66,93.86,278.49,93.86Zm-45.35,0c-13.83,0-22.91,9-22.91,22.59,0,13.43,9,22.27,22.75,22.27,9.65,0,17-4.1,20.42-11.34L240.78,121c-1.37,3.3-3.78,4.82-6.91,4.82-4.34,0-7.24-3.78-7.24-9.49,0-5.55,2.89-9.33,7.24-9.33a7.81,7.81,0,0,1,7,4.34l12.46-6.11C249.62,98,242.31,93.86,233.14,93.86Zm-49.85,11.9-6-11.34H158.61l13.75,21.39-14.63,22.35h17.85l7.72-12.38L190,138.16H208.7l-14.63-22.43,13.67-21.31H190Zm-29.59-11.1V81.8H107.64v56.36h46.87V125.3H124.36v-8.92H151V103.51H124.36V94.66ZM549,66.76V7.1H532.71V66.76Zm-48.56-9.89a7.94,7.94,0,0,0,7.4-4.5V48.43h-7.4c-3.22,0-4.9,1.37-4.9,4.1S497.26,56.87,500.39,56.87Zm3.7-34.49c12.3,0,19.62,5.87,19.62,16V66.76H507.79V61.94c-2.65,3.54-7,5.55-12.78,5.55-9.33,0-14.79-5.55-14.79-13.75,0-8.44,5.87-13.11,16.88-13.27h10.69v-.16c0-3.62-2.57-5.79-7.56-5.79A35.62,35.62,0,0,0,487,37.66l-4-10.77A56.43,56.43,0,0,1,504.09,22.38ZM474.42,53.49a16.24,16.24,0,0,1-5,1.29c-2.25,0-3.7-1.37-3.7-4.18v-15h10.77V25.27H465.74V13.13H449.58V25.27h-6V35.65h6V53.09c0,9.09,6.27,14.47,15.6,14.39a25.78,25.78,0,0,0,12.14-2.81ZM423,22.38c-6.11,0-10.85,2.57-13.91,7.4V23H392.9V66.76h16.24V45.13c0-5,2.73-8.44,7.16-8.52,3.78,0,6.27,2.73,6.27,7.08V66.76h16.24V39C438.81,28.89,432.37,22.38,423,22.38ZM356.64,40.87h13.75c.08-4.34-2.65-7.4-6.59-7.4C360,33.47,357.44,36.45,356.64,40.87Zm7-18.41c15.36,0,23.72,10.29,22.75,26.37H357c1.29,4.18,4.34,6.51,8.52,6.51a14.34,14.34,0,0,0,9.65-4.18l8.44,8.28c-4.58,5.07-11.18,7.88-19.46,7.88-14.63,0-23.56-8.84-23.56-22.27C340.56,31.38,349.8,22.46,363.63,22.46Zm-64.4,1.13V53.65h8.44c7.64,0,12.78-5.95,12.78-15s-5.55-15.12-13.59-15.12ZM282.51,10.4h24.68c18.25,0,30.31,11.18,30.31,28.14s-12.3,28.22-30.87,28.22H282.51Z"/></clipPath><clipPath id="clip-path-2"><path class="cls-1" d="M265.88,42.83a2.45,2.45,0,0,1,1.12,2,2.25,2.25,0,0,1-.58,1.5,2.11,2.11,0,0,1-1.7.67,2,2,0,0,1-1.18-.32,1,1,0,0,1-.45-.83,1.88,1.88,0,0,1,.22-.83,2.92,2.92,0,0,0,.26-1q0-1-.9-1-2.27,0-2.85,7.74l-.1.83h2.43v.74l-.67.51h-1.89l-1,9.18a20.71,20.71,0,0,1-2.48,8,5.62,5.62,0,0,1-5,3.06,4.75,4.75,0,0,1-2.77-.78,2.32,2.32,0,0,1-1.14-2,2.2,2.2,0,0,1,.59-1.52,2.15,2.15,0,0,1,1.68-.66,2,2,0,0,1,1.15.3,1,1,0,0,1,.45.88,2.45,2.45,0,0,1-.19.77,2.11,2.11,0,0,0-.26.93q0,1,.9,1,1.15,0,1.76-2.1a39,39,0,0,0,1-7l1.12-10.14h-2.21l.58-1.25h1.79l0-.38a13.26,13.26,0,0,1,2.4-6.7A6,6,0,0,1,263,42,4.7,4.7,0,0,1,265.88,42.83ZM243.15,56.46a17.26,17.26,0,0,0-.64,4.64q0,3.2,1.66,3.2,2,0,3-3.81a17.43,17.43,0,0,0,.58-4.48q0-3.23-1.63-3.23Q244.21,52.78,243.15,56.46Zm7.52-3.55a5.74,5.74,0,0,1,1.28,3.9,10,10,0,0,1-1,4.37,7.89,7.89,0,0,1-2.88,3.26,8.27,8.27,0,0,1-4.59,1.23,4.88,4.88,0,0,1-3.89-1.49,5.71,5.71,0,0,1-1.3-3.89,9.93,9.93,0,0,1,1-4.38,7.87,7.87,0,0,1,2.9-3.25,8.35,8.35,0,0,1,4.61-1.23A4.86,4.86,0,0,1,250.67,52.91Zm-25.9,2.24a11.56,11.56,0,0,0-.86,3.3,6.84,6.84,0,0,0,3.6-1.58A3.79,3.79,0,0,0,228.74,54a1.67,1.67,0,0,0-.3-1,1.11,1.11,0,0,0-.94-.4Q225.86,52.56,224.77,55.15Zm6.53,1.46a7,7,0,0,1-2.74,1.82,16.77,16.77,0,0,1-4.75,1.07V60a4.12,4.12,0,0,0,.66,2.54,2.16,2.16,0,0,0,1.81.85A5.12,5.12,0,0,0,228.2,63a8,8,0,0,0,2-1.18l.7.64a8.23,8.23,0,0,1-2.83,2.35,7.58,7.58,0,0,1-3.5.88,4.81,4.81,0,0,1-3.7-1.42,5.52,5.52,0,0,1-1.33-3.92,9.1,9.1,0,0,1,4.19-7.68,7.35,7.35,0,0,1,4-1.18,5.71,5.71,0,0,1,3.25.83,2.52,2.52,0,0,1,1.23,2.18A3.35,3.35,0,0,1,231.3,56.61Zm-13.22-4.3a2.59,2.59,0,0,1,1.25,2.21,2.27,2.27,0,0,1-.62,1.6,2.22,2.22,0,0,1-1.71.67,2.14,2.14,0,0,1-1.1-.27,1,1,0,0,1-.46-.94,2.44,2.44,0,0,1,.26-.93,2,2,0,0,0,.26-.86,1.12,1.12,0,0,0-.37-.9,1.39,1.39,0,0,0-.94-.32q-1.66,0-2.78,2.69a11.86,11.86,0,0,0-.93,4.7,4.19,4.19,0,0,0,.66,2.56,2.14,2.14,0,0,0,1.81.86,5.19,5.19,0,0,0,2-.43,7.58,7.58,0,0,0,2-1.17l.7.64a8.56,8.56,0,0,1-2.83,2.34,7.41,7.41,0,0,1-3.47.9,4.88,4.88,0,0,1-3.73-1.41,5.51,5.51,0,0,1-1.33-3.94,8.8,8.8,0,0,1,1.17-4.46,8.94,8.94,0,0,1,3.09-3.22,7.62,7.62,0,0,1,4.06-1.18A5.38,5.38,0,0,1,218.08,52.3Zm-11.75.11a2.69,2.69,0,0,1,.61,1.74,2.89,2.89,0,0,1-.62,1.82,2.12,2.12,0,0,1-1.78.8,2,2,0,0,1-1-.26.94.94,0,0,1-.45-.9,2,2,0,0,1,.11-.62,1.77,1.77,0,0,0,.11-.5.4.4,0,0,0-.1-.27.29.29,0,0,0-.22-.11q-.67,0-1.49,1.12a14.27,14.27,0,0,0-1.55,2.88,20.12,20.12,0,0,0-1.12,3.55l-.45,3.68h-3.94a95.53,95.53,0,0,0,1.47-10.85q0-1-.93-1a2.1,2.1,0,0,0-.51.06l-.13-1.15q1.22-.38,2.26-.61a9.93,9.93,0,0,1,2.1-.22q1.57,0,1.57.83,0,.45-.74,4.54a12.56,12.56,0,0,1,2.21-3.79,3.79,3.79,0,0,1,2.85-1.49A2.13,2.13,0,0,1,206.33,52.42Zm-13.51,11a10,10,0,0,1-2.77,1.71,6.79,6.79,0,0,1-2.42.53.87.87,0,0,1-.8-.35,2.15,2.15,0,0,1-.22-1.12,14.88,14.88,0,0,1,.14-1.71q.14-1.14.34-2.42A16,16,0,0,1,184,64.4a4.61,4.61,0,0,1-3,1.28,2.54,2.54,0,0,1-2-.72,2.59,2.59,0,0,1-.67-1.84,34.29,34.29,0,0,1,1-5.41,24.13,24.13,0,0,0,.64-3.36q0-.86-1.18-.86a2.69,2.69,0,0,0-.64.06l-.13-1.15q1.73-.45,2.72-.64a10.93,10.93,0,0,1,2.08-.19q1.31,0,1.31.83a11.18,11.18,0,0,1-.29,1.63q-.29,1.31-.38,1.66T183,57.57q-.32,1.46-.5,2.45a9.34,9.34,0,0,0-.18,1.44,1.72,1.72,0,0,0,.21.91.72.72,0,0,0,.66.34,2.52,2.52,0,0,0,1.71-1.1,12.83,12.83,0,0,0,1.73-2.7,14.1,14.1,0,0,0,1.1-3l.61-3.87,4.38-.54q-.1.45-.32,1.7-.93,4.86-1.23,6.62a17,17,0,0,0-.3,2.59q0,.54.42.54a2.25,2.25,0,0,0,1.22-.42Zm-24.9-7a17.26,17.26,0,0,0-.64,4.64q0,3.2,1.66,3.2,2,0,3-3.81a17.43,17.43,0,0,0,.58-4.48q0-3.23-1.63-3.23Q169,52.78,167.92,56.46Zm7.52-3.55a5.74,5.74,0,0,1,1.28,3.9,10,10,0,0,1-1,4.37,7.89,7.89,0,0,1-2.88,3.26,8.27,8.27,0,0,1-4.59,1.23,4.88,4.88,0,0,1-3.89-1.49,5.71,5.71,0,0,1-1.3-3.89,9.93,9.93,0,0,1,1-4.38,7.87,7.87,0,0,1,2.9-3.25,8.35,8.35,0,0,1,4.61-1.23A4.86,4.86,0,0,1,175.44,52.91ZM158.52,46.1a12.19,12.19,0,0,1,1.44.42l1,.35a2.82,2.82,0,0,0,.9.19,3.08,3.08,0,0,0,1-.13q-.26,1.09-.43,1.92a8.82,8.82,0,0,0-.18,1.82,4.86,4.86,0,0,0,.06.8h-1.09a5.18,5.18,0,0,0,0-.67,3.53,3.53,0,0,0-1.14-2.74,4.26,4.26,0,0,0-3-1,4.78,4.78,0,0,0-2.69.74,2.38,2.38,0,0,0-1.12,2.11,2.52,2.52,0,0,0,.67,1.76,7.94,7.94,0,0,0,2.11,1.5l2,1.12a11.46,11.46,0,0,1,3,2.22,4.13,4.13,0,0,1,.94,2.83,5.94,5.94,0,0,1-.91,3.22,6.24,6.24,0,0,1-2.69,2.3,9.68,9.68,0,0,1-4.21.85,12.22,12.22,0,0,1-2.91-.42,12.67,12.67,0,0,0-2.34-.48,5.39,5.39,0,0,0-.78.06,3,3,0,0,0-.59.13,17.36,17.36,0,0,0,.77-5.31q0-.67-.06-.7l1.09-.1a6,6,0,0,0,1.2,4.22,4.42,4.42,0,0,0,3.5,1.44,4.37,4.37,0,0,0,2.75-.86,2.67,2.67,0,0,0,1.12-2.21,2.71,2.71,0,0,0-.7-1.87A7.84,7.84,0,0,0,155.08,58l-2.21-1.15a7.33,7.33,0,0,1-2.51-2,4.74,4.74,0,0,1-.88-2.91,5.6,5.6,0,0,1,.85-3,5.88,5.88,0,0,1,2.48-2.16,8.87,8.87,0,0,1,3.94-.8A8.34,8.34,0,0,1,158.52,46.1ZM132.6,61.58a18.14,18.14,0,0,0,2-3.74,10.21,10.21,0,0,0,.85-3.62A1.51,1.51,0,0,0,135,53a1.64,1.64,0,0,0-1.14-.42A2.66,2.66,0,0,0,131.71,54a11.23,11.23,0,0,0-1.57,3.58,13.3,13.3,0,0,0-.51,3.46,3.45,3.45,0,0,0,.3,1.62.91.91,0,0,0,.82.56Q131.48,63.18,132.6,61.58Zm8.1-15.46-.19,1.09q-.86,5.41-1.42,9.23t-.62,5.65a1.25,1.25,0,0,0,.14.59.49.49,0,0,0,.46.27,1.91,1.91,0,0,0,1-.35l.38.86A10.35,10.35,0,0,1,138,65.1a5.45,5.45,0,0,1-2.19.58,1.54,1.54,0,0,1-1.14-.4,1.49,1.49,0,0,1-.4-1.1,28.11,28.11,0,0,1,.42-4.42,10.89,10.89,0,0,1-2.8,4.5,5.05,5.05,0,0,1-3.28,1.42,2.91,2.91,0,0,1-2.3-1.09,4.29,4.29,0,0,1-.93-2.88,12.08,12.08,0,0,1,1.06-4.94,10.11,10.11,0,0,1,2.88-3.86,6.23,6.23,0,0,1,4-1.47,3.36,3.36,0,0,1,1.55.35,2,2,0,0,1,1,1q.38-2.59.67-5t.29-3.07q0-.77-1.09-.77a3.68,3.68,0,0,0-.77.06l-.16-1a14,14,0,0,1,5-1,2.26,2.26,0,0,1,1.07.19.77.77,0,0,1,.34.74Q141.21,43.28,140.7,46.13Zm-22.57,9a11.56,11.56,0,0,0-.86,3.3,6.84,6.84,0,0,0,3.6-1.58A3.79,3.79,0,0,0,122.1,54a1.67,1.67,0,0,0-.3-1,1.11,1.11,0,0,0-.94-.4Q119.22,52.56,118.13,55.15Zm6.53,1.46a7,7,0,0,1-2.74,1.82,16.77,16.77,0,0,1-4.75,1.07V60a4.12,4.12,0,0,0,.66,2.54,2.16,2.16,0,0,0,1.81.85,5.12,5.12,0,0,0,1.92-.42,8,8,0,0,0,2-1.18l.7.64a8.23,8.23,0,0,1-2.83,2.35,7.58,7.58,0,0,1-3.5.88,4.81,4.81,0,0,1-3.7-1.42,5.52,5.52,0,0,1-1.33-3.92,9.1,9.1,0,0,1,4.19-7.68,7.35,7.35,0,0,1,4-1.18,5.71,5.71,0,0,1,3.25.83,2.52,2.52,0,0,1,1.23,2.18A3.35,3.35,0,0,1,124.66,56.61ZM108.43,57a38.7,38.7,0,0,0-.67,5.06q0,1.09.9,1.09A3.85,3.85,0,0,0,110.89,62l.74.7q-2.59,3-5.5,3a2.9,2.9,0,0,1-2-.59,2,2,0,0,1-.64-1.52,38.88,38.88,0,0,1,.54-4.13l.19-1.28.86-5.15h-2.5l.74-1.22h2l.48-2.94,4.32-.74-.67,3.68h3.1v.7l-.93.51h-2.4Q108.62,55.79,108.43,57Zm-9.89-.85a1,1,0,0,1-.45-.85,1.88,1.88,0,0,1,.22-.83,2,2,0,0,0,.19-.74,1,1,0,0,0-.53-.86,2.66,2.66,0,0,0-1.39-.32,2.21,2.21,0,0,0-1.58.56,1.91,1.91,0,0,0-.62,1.36,1.73,1.73,0,0,0,.69,1.33A13.3,13.3,0,0,0,97.13,57,22,22,0,0,1,99,58.13a4.43,4.43,0,0,1,1.25,1.23,3.14,3.14,0,0,1,.51,1.81A3.73,3.73,0,0,1,99,64.53a8.29,8.29,0,0,1-4.51,1.15,6.93,6.93,0,0,1-3.62-.85,2.47,2.47,0,0,1-1.41-2.13A2,2,0,0,1,90,61.22a2.13,2.13,0,0,1,1.6-.59q1.57,0,1.57,1.18a1.74,1.74,0,0,1-.26.86,1.94,1.94,0,0,0-.19.7,1,1,0,0,0,.51.86,2.65,2.65,0,0,0,1.41.32A3.28,3.28,0,0,0,96.6,64a1.55,1.55,0,0,0,.72-1.31,1.73,1.73,0,0,0-.66-1.36,10.23,10.23,0,0,0-2-1.23A19.24,19.24,0,0,1,92.74,59a4.66,4.66,0,0,1-1.26-1.28A3.27,3.27,0,0,1,91,55.89a3.75,3.75,0,0,1,1.71-3.28,7.12,7.12,0,0,1,4.11-1.17,7.38,7.38,0,0,1,2.5.4A4.45,4.45,0,0,1,101,52.91a2.13,2.13,0,0,1,.08,3,2.06,2.06,0,0,1-2.58.26Zm-9.48,7.31a10,10,0,0,1-2.77,1.71,6.79,6.79,0,0,1-2.42.53.87.87,0,0,1-.8-.35,2.15,2.15,0,0,1-.22-1.12A14.88,14.88,0,0,1,83,62.5q.14-1.14.34-2.42a16,16,0,0,1-3.14,4.32,4.61,4.61,0,0,1-3,1.28,2.54,2.54,0,0,1-2-.72,2.59,2.59,0,0,1-.67-1.84,34.29,34.29,0,0,1,1-5.41,24.13,24.13,0,0,0,.64-3.36q0-.86-1.18-.86a2.69,2.69,0,0,0-.64.06l-.13-1.15q1.73-.45,2.72-.64A10.93,10.93,0,0,1,79,51.57q1.31,0,1.31.83A11.18,11.18,0,0,1,80,54q-.29,1.31-.38,1.66t-.42,1.87Q78.88,59,78.71,60a9.33,9.33,0,0,0-.18,1.44,1.72,1.72,0,0,0,.21.91.72.72,0,0,0,.66.34,2.52,2.52,0,0,0,1.71-1.1,12.83,12.83,0,0,0,1.73-2.7,14.1,14.1,0,0,0,1.1-3L84.55,52l4.38-.54q-.1.45-.32,1.7-.93,4.86-1.23,6.62a17,17,0,0,0-.3,2.59q0,.54.42.54a2.25,2.25,0,0,0,1.22-.42Zm-15.94-11a2.69,2.69,0,0,1,.61,1.74A2.89,2.89,0,0,1,73.1,56a2.12,2.12,0,0,1-1.78.8,2,2,0,0,1-1-.26.94.94,0,0,1-.45-.9A2,2,0,0,1,70,55a1.77,1.77,0,0,0,.11-.5.4.4,0,0,0-.1-.27.29.29,0,0,0-.22-.11q-.67,0-1.49,1.12a14.26,14.26,0,0,0-1.55,2.88,20.12,20.12,0,0,0-1.12,3.55l-.45,3.68H61.21a95.53,95.53,0,0,0,1.47-10.85q0-1-.93-1a2.1,2.1,0,0,0-.51.06l-.13-1.15q1.22-.38,2.26-.61a9.93,9.93,0,0,1,2.1-.22q1.57,0,1.57.83,0,.45-.74,4.54a12.56,12.56,0,0,1,2.21-3.79,3.79,3.79,0,0,1,2.85-1.49A2.13,2.13,0,0,1,73.12,52.42ZM62.26,51.15H61.17a5.88,5.88,0,0,0,.06-1,2.61,2.61,0,0,0-.8-2.11,4,4,0,0,0-2.59-.67h-.61a.43.43,0,0,0-.45.35L54.58,63.54v.16q0,.54.51.54l1.7-.06-.16,1.18h-9l.13-1.18,1.73.06a.59.59,0,0,0,.48-.24,1.29,1.29,0,0,0,.26-.56l2.18-15.68v-.1a.25.25,0,0,0-.29-.29h-.58a4.75,4.75,0,0,0-3.15.91A4.34,4.34,0,0,0,47,51.15H45.94l.7-5a14.17,14.17,0,0,0,1.5.06H61.46a10.35,10.35,0,0,0,1.5-.06Zm196-28a1,1,0,0,1-.45-.85,1.88,1.88,0,0,1,.22-.83,2,2,0,0,0,.19-.74,1,1,0,0,0-.53-.86,2.66,2.66,0,0,0-1.39-.32,2.21,2.21,0,0,0-1.58.56,1.91,1.91,0,0,0-.62,1.36,1.73,1.73,0,0,0,.69,1.33A13.3,13.3,0,0,0,256.89,24a22,22,0,0,1,1.92,1.09,4.42,4.42,0,0,1,1.25,1.23,3.14,3.14,0,0,1,.51,1.81,3.73,3.73,0,0,1-1.82,3.36,8.29,8.29,0,0,1-4.51,1.15,6.93,6.93,0,0,1-3.62-.85,2.47,2.47,0,0,1-1.41-2.13,2,2,0,0,1,.58-1.49,2.13,2.13,0,0,1,1.6-.59q1.57,0,1.57,1.18a1.74,1.74,0,0,1-.26.86,1.94,1.94,0,0,0-.19.7,1,1,0,0,0,.51.86,2.65,2.65,0,0,0,1.41.32,3.28,3.28,0,0,0,1.94-.51,1.55,1.55,0,0,0,.72-1.31,1.73,1.73,0,0,0-.66-1.36,10.23,10.23,0,0,0-2-1.23A19.25,19.25,0,0,1,252.5,26a4.66,4.66,0,0,1-1.26-1.28,3.27,3.27,0,0,1-.53-1.87,3.75,3.75,0,0,1,1.71-3.28,7.12,7.12,0,0,1,4.11-1.17,7.38,7.38,0,0,1,2.5.4,4.45,4.45,0,0,1,1.76,1.07,2.13,2.13,0,0,1,.08,3,2.06,2.06,0,0,1-2.58.26ZM248,12.47a1.76,1.76,0,0,1,1.41-.59,1.45,1.45,0,0,1,1.07.37,1.41,1.41,0,0,1,.37,1,7.65,7.65,0,0,1-.77,2.4q-.45,1-.7,1.68a6.1,6.1,0,0,0-.35,1.26q-.1.64-.64.64T248,18.6l0-.64a14.28,14.28,0,0,0-.29-2.3,11.57,11.57,0,0,1-.19-1.6A2.34,2.34,0,0,1,248,12.47Zm-3,18a12,12,0,0,1-2.66,1.63,6,6,0,0,1-2.3.61,1.3,1.3,0,0,1-1-.38,1.43,1.43,0,0,1-.38-1.06,29,29,0,0,1,.8-4.58q.29-1.34.53-2.61a11.15,11.15,0,0,0,.24-1.81q0-1.09-.93-1.09a2.56,2.56,0,0,0-1.76,1.14,13.5,13.5,0,0,0-1.79,2.86,17.76,17.76,0,0,0-1.25,3.39l-.45,3.81h-4q.58-3.62,1.68-11.38t1.1-9.23a.65.65,0,0,0-.29-.58,1.36,1.36,0,0,0-.77-.19,3.68,3.68,0,0,0-.77.06L231,10a16.15,16.15,0,0,1,2.66-.77A11.88,11.88,0,0,1,235.82,9a3,3,0,0,1,1.2.18.75.75,0,0,1,.37.75,15.39,15.39,0,0,1-.32,2q-.38,2-.93,5.63l-1,6.94A16.33,16.33,0,0,1,238,20.18a4.91,4.91,0,0,1,3.65-1.74,2.75,2.75,0,0,1,2.08.8,2.88,2.88,0,0,1,.77,2.08,8.78,8.78,0,0,1-.22,1.76q-.22,1.06-.67,3a18.74,18.74,0,0,0-.67,3.17,1,1,0,0,0,.13.5.49.49,0,0,0,.48.24,2.21,2.21,0,0,0,1.18-.42ZM223.46,35.1a14.22,14.22,0,0,0-3-.85q-1.57-.29-2.14-.42a4,4,0,0,0-1.46,1.3A3.14,3.14,0,0,0,216.2,37a1.86,1.86,0,0,0,.82,1.58,4.37,4.37,0,0,0,2.54.59,8.19,8.19,0,0,0,2.56-.37,4.57,4.57,0,0,0,1.74-1,1.76,1.76,0,0,0,.62-1.3A1.51,1.51,0,0,0,223.46,35.1ZM224,21.51q0-2.11-1.31-2.11-1.7,0-2.53,2.53a11,11,0,0,0-.48,3.3q0,2.08,1.38,2.08a1.92,1.92,0,0,0,1.49-.66,5.38,5.38,0,0,0,1-1.87A9.86,9.86,0,0,0,224,21.51Zm6.64-5.1a1.29,1.29,0,0,1,.46,1.07,1.8,1.8,0,0,1-.4,1.1,1.38,1.38,0,0,1-1.17.53,1.16,1.16,0,0,1-.67-.16,1.57,1.57,0,0,1-.42-.48,1.69,1.69,0,0,0-.29-.37.57.57,0,0,0-.38-.11,2,2,0,0,0-.82.24,3.07,3.07,0,0,0-.91.69,3.29,3.29,0,0,1,2.18,3.2,5.54,5.54,0,0,1-.91,3.07,6.38,6.38,0,0,1-2.67,2.26,9.57,9.57,0,0,1-4.19.85,10.17,10.17,0,0,1-1.79-.16,1.62,1.62,0,0,0-.58,1.09q0,.64.82,1a15,15,0,0,0,2.61.64l.83.16a21.93,21.93,0,0,1,3,.77,5.14,5.14,0,0,1,2,1.25,3.06,3.06,0,0,1,.82,2.24,4,4,0,0,1-2.46,3.66,13.89,13.89,0,0,1-6.46,1.3,10.39,10.39,0,0,1-4.53-.77,2.4,2.4,0,0,1-1.52-2.21,2.84,2.84,0,0,1,1-2.11,8.16,8.16,0,0,1,2.86-1.6,4.7,4.7,0,0,1-1.68-.94,1.87,1.87,0,0,1-.59-1.42,2.45,2.45,0,0,1,.45-1.38,6.23,6.23,0,0,1,1.41-1.41l.83-.64a3.29,3.29,0,0,1-2-3.14,5.56,5.56,0,0,1,.9-3,6.25,6.25,0,0,1,2.67-2.26,10.74,10.74,0,0,1,6-.69Q227.4,16,229.41,16A2,2,0,0,1,230.68,16.41ZM211.05,32.09a4.88,4.88,0,0,1-2.1.59,1.68,1.68,0,0,1-1.15-.37,1.4,1.4,0,0,1-.42-1.1,14.52,14.52,0,0,1,.19-1.84l.26-1.71.38-2.43a36.07,36.07,0,0,0,.38-3.94q0-.8-1-.8a2.1,2.1,0,0,0-.51.06L207,19.4a16.14,16.14,0,0,1,4.77-.83,2.16,2.16,0,0,1,1,.18.77.77,0,0,1,.34.75,21.92,21.92,0,0,1-.38,2.21q-.54,2.78-.64,3.3a24.8,24.8,0,0,0-.51,4.1q0,.86.54.86a2.18,2.18,0,0,0,1.15-.42l.38.9A14.75,14.75,0,0,1,211.05,32.09Zm2.29-20.29a1.47,1.47,0,0,1,.61,1.23,2,2,0,0,1-.77,1.7,3.15,3.15,0,0,1-2,.61,2.57,2.57,0,0,1-1.6-.46,1.47,1.47,0,0,1-.61-1.23,2,2,0,0,1,.78-1.66,3,3,0,0,1,2-.64A2.62,2.62,0,0,1,213.34,11.8ZM198.94,22.15a11.56,11.56,0,0,0-.86,3.3,6.84,6.84,0,0,0,3.6-1.58A3.79,3.79,0,0,0,202.9,21a1.67,1.67,0,0,0-.3-1,1.11,1.11,0,0,0-.94-.4Q200,19.56,198.94,22.15Zm6.53,1.46a7,7,0,0,1-2.74,1.82A16.77,16.77,0,0,1,198,26.5V27a4.12,4.12,0,0,0,.66,2.54,2.16,2.16,0,0,0,1.81.85,5.12,5.12,0,0,0,1.92-.42,8,8,0,0,0,2-1.18l.7.64a8.23,8.23,0,0,1-2.83,2.35,7.58,7.58,0,0,1-3.5.88,4.81,4.81,0,0,1-3.7-1.42,5.52,5.52,0,0,1-1.33-3.92,9.1,9.1,0,0,1,4.19-7.68,7.35,7.35,0,0,1,4-1.18,5.71,5.71,0,0,1,3.25.83,2.52,2.52,0,0,1,1.23,2.18A3.35,3.35,0,0,1,205.46,23.61ZM188.59,11.18a1.36,1.36,0,0,0-.77-.19,3.68,3.68,0,0,0-.77.06l-.16-1A14.8,14.8,0,0,1,192,9a2.18,2.18,0,0,1,1,.19.76.76,0,0,1,.35.74,9.92,9.92,0,0,1-.16,1.2q-.16.94-.26,1.55-.06.29-.45,2.43-1.79,11-1.92,14a1.48,1.48,0,0,0,.11.62.49.49,0,0,0,.5.24,2.47,2.47,0,0,0,.59-.1,2.53,2.53,0,0,0,.72-.32l.42.9a11.43,11.43,0,0,1-2.61,1.65,5.85,5.85,0,0,1-2.32.59,1.69,1.69,0,0,1-1.17-.38,1.38,1.38,0,0,1-.43-1.09q0-.86,1.06-7.78l.42-2.91q1.06-7.33,1.06-8.77A.65.65,0,0,0,188.59,11.18ZM177.24,28.55a18.77,18.77,0,0,0,2-3.81,10.35,10.35,0,0,0,.86-3.68,1.35,1.35,0,0,0-1.47-1.44A2.79,2.79,0,0,0,176.44,21a10.53,10.53,0,0,0-1.58,3.65,12.55,12.55,0,0,0-.51,3.52,3.29,3.29,0,0,0,.27,1.5.83.83,0,0,0,.75.51Q176.11,30.18,177.24,28.55Zm7.12,1,.35.9a8.42,8.42,0,0,1-2.4,1.6,6.26,6.26,0,0,1-2.56.64,1.05,1.05,0,0,1-.91-.34,2,2,0,0,1-.24-1.14,23.29,23.29,0,0,1,.45-3.26q.06-.58.13-.86a12,12,0,0,1-2.93,4.27A5,5,0,0,1,173,32.68a2.55,2.55,0,0,1-2.18-1,4.73,4.73,0,0,1-.77-2.86,11.89,11.89,0,0,1,1.09-5,10.37,10.37,0,0,1,2.94-3.89,6.36,6.36,0,0,1,4.06-1.49,3,3,0,0,1,1.38.32,2.38,2.38,0,0,1,1,.9l.19-.74,4.13-.45-.74,3.07q-.58,2.37-1,4.69a22.63,22.63,0,0,0-.4,3.18q0,.54.42.54A2.14,2.14,0,0,0,184.36,29.54Zm-24.2-15.17q-.42,0-.45.32l-1.09,7.87h2a2.65,2.65,0,0,0,2.26-1.42,6.75,6.75,0,0,0,.91-3.7,3.45,3.45,0,0,0-.66-2.34,2.5,2.5,0,0,0-2-.74Zm6.46-.11a3.43,3.43,0,0,1,1.5,3.06,5.15,5.15,0,0,1-1.28,3.55,7,7,0,0,1-3.46,2,3.55,3.55,0,0,1,2.46,1.26,4.37,4.37,0,0,1,.8,2.74l-.06,1.63L166.53,30a1.77,1.77,0,0,0,.21,1,.81.81,0,0,0,.72.3,1.18,1.18,0,0,0,.67-.19l.26.74a8.57,8.57,0,0,1-1.71.61,7.86,7.86,0,0,1-1.94.26,2.83,2.83,0,0,1-1.89-.53,2.2,2.2,0,0,1-.61-1.74q0-.48.13-1.76t.13-1.5a4.49,4.49,0,0,0-.61-2.51,2.6,2.6,0,0,0-2.27-.94h-1.15l-1,6.91v.16q0,.48.51.48l1.57-.06-.16,1.18h-8.32l.16-1.18,1.12.06h.06q.54,0,.64-.7l2.18-15.42V15q0-.61-.58-.61l-1.06.06.16-1.18h8.26A8.31,8.31,0,0,1,166.63,14.26ZM144.35,30.44a11.9,11.9,0,0,1-2.67,1.63,6.08,6.08,0,0,1-2.32.61,1.28,1.28,0,0,1-1-.4,1.44,1.44,0,0,1-.38-1,14.19,14.19,0,0,1,.37-2.5l.43-2.08a28.67,28.67,0,0,0,.8-4.42,1.16,1.16,0,0,0-.26-.8.89.89,0,0,0-.7-.29,2.53,2.53,0,0,0-1.71,1.09A12.52,12.52,0,0,0,135.18,25a19.38,19.38,0,0,0-1.26,3.36l-.48,4H129.5A95.54,95.54,0,0,0,131,21.51q0-1-.93-1a2.1,2.1,0,0,0-.51.06l-.13-1.15q1.22-.38,2.26-.61a9.93,9.93,0,0,1,2.1-.22q1.57,0,1.57.83a27.07,27.07,0,0,1-.51,3.14l-.29,1.73a15.2,15.2,0,0,1,2.77-4.14,4.9,4.9,0,0,1,3.6-1.68,2.75,2.75,0,0,1,2.08.8,2.88,2.88,0,0,1,.77,2.08,8.78,8.78,0,0,1-.22,1.76q-.22,1.06-.67,3a18.74,18.74,0,0,0-.67,3.17,1,1,0,0,0,.13.5.49.49,0,0,0,.48.24,2.21,2.21,0,0,0,1.18-.42ZM128.23,19.06a2.43,2.43,0,0,1,.59,1.74,9,9,0,0,1-1.2,4,25,25,0,0,1-2.94,4.38,20.66,20.66,0,0,1-3.31,3.28h-1.09l-1.57-6.21a28.05,28.05,0,0,1-2.64,3.52,20.57,20.57,0,0,1-2.77,2.69h-1.12l-2.91-11.07a1.77,1.77,0,0,0-.35-.82.75.75,0,0,0-.58-.24,4.06,4.06,0,0,0-.74.1l-.19-1.09a12.09,12.09,0,0,1,3.71-.83,2,2,0,0,1,1.34.45,3.07,3.07,0,0,1,.77,1.7l1.86,8.38a17,17,0,0,0,3.14-4.67l-1-3.39a9.58,9.58,0,0,0-.86-2.27h4.48l2.27,10.34a21.63,21.63,0,0,0,2.51-3.39,6,6,0,0,0,1-2.91q0-.8-1-.8a1.13,1.13,0,0,1-.94-.43,1.91,1.91,0,0,1-.34-1.2A1.78,1.78,0,0,1,125,19a2.29,2.29,0,0,1,1.58-.53A2.16,2.16,0,0,1,128.23,19.06ZM98,23.46a17.26,17.26,0,0,0-.64,4.64q0,3.2,1.66,3.2,2,0,3-3.81a17.43,17.43,0,0,0,.58-4.48q0-3.23-1.63-3.23Q99,19.78,98,23.46Zm7.52-3.55a5.74,5.74,0,0,1,1.28,3.9,10,10,0,0,1-1,4.37,7.89,7.89,0,0,1-2.88,3.26,8.27,8.27,0,0,1-4.59,1.23,4.88,4.88,0,0,1-3.89-1.49,5.71,5.71,0,0,1-1.3-3.89,9.93,9.93,0,0,1,1-4.38A7.87,7.87,0,0,1,97,19.67a8.35,8.35,0,0,1,4.61-1.23A4.86,4.86,0,0,1,105.49,19.91ZM88.68,24A38.7,38.7,0,0,0,88,29q0,1.09.9,1.09A3.85,3.85,0,0,0,91.14,29l.74.7q-2.59,3-5.5,3a2.9,2.9,0,0,1-2-.59,2,2,0,0,1-.64-1.52,38.88,38.88,0,0,1,.54-4.13l.19-1.28L85.32,20h-2.5l.74-1.22h2L86,15.82l4.32-.74-.67,3.68h3.1v.7l-.93.51h-2.4Q88.87,22.79,88.68,24Zm-7.21,6.46a11.9,11.9,0,0,1-2.67,1.63,6.08,6.08,0,0,1-2.32.61,1.28,1.28,0,0,1-1-.4,1.44,1.44,0,0,1-.38-1,14.19,14.19,0,0,1,.37-2.5l.43-2.08a28.67,28.67,0,0,0,.8-4.42,1.16,1.16,0,0,0-.26-.8.89.89,0,0,0-.7-.29,2.53,2.53,0,0,0-1.71,1.09A12.52,12.52,0,0,0,72.31,25,19.38,19.38,0,0,0,71,28.39l-.48,4H66.63A95.53,95.53,0,0,0,68.1,21.51q0-1-.93-1a2.1,2.1,0,0,0-.51.06l-.13-1.15q1.22-.38,2.26-.61a9.93,9.93,0,0,1,2.1-.22q1.57,0,1.57.83a27.07,27.07,0,0,1-.51,3.14l-.29,1.73a15.2,15.2,0,0,1,2.77-4.14A4.9,4.9,0,0,1,78,18.44a2.75,2.75,0,0,1,2.08.8,2.88,2.88,0,0,1,.77,2.08,8.78,8.78,0,0,1-.22,1.76q-.22,1.06-.67,3a18.74,18.74,0,0,0-.67,3.17,1,1,0,0,0,.13.5.49.49,0,0,0,.48.24,2.21,2.21,0,0,0,1.18-.42ZM65.36,19.06a2.43,2.43,0,0,1,.59,1.74,9,9,0,0,1-1.2,4,25,25,0,0,1-2.94,4.38,20.65,20.65,0,0,1-3.31,3.28H57.4l-1.57-6.21a28.05,28.05,0,0,1-2.64,3.52,20.57,20.57,0,0,1-2.77,2.69H49.31L46.4,21.45a1.77,1.77,0,0,0-.35-.82.75.75,0,0,0-.58-.24,4.06,4.06,0,0,0-.74.1l-.19-1.09a12.09,12.09,0,0,1,3.71-.83A2,2,0,0,1,49.6,19a3.07,3.07,0,0,1,.77,1.7l1.86,8.38a17,17,0,0,0,3.14-4.67L54.4,21a9.58,9.58,0,0,0-.86-2.27H58L60.28,29.1A21.63,21.63,0,0,0,62.8,25.7a6,6,0,0,0,1-2.91q0-.8-1-.8a1.13,1.13,0,0,1-.94-.43,1.91,1.91,0,0,1-.34-1.2A1.78,1.78,0,0,1,62.12,19a2.29,2.29,0,0,1,1.58-.53A2.16,2.16,0,0,1,65.36,19.06Zm-30.26,4.4a17.26,17.26,0,0,0-.64,4.64q0,3.2,1.66,3.2,2,0,3-3.81A17.43,17.43,0,0,0,39.7,23q0-3.23-1.63-3.23Q36.15,19.78,35.09,23.46Zm7.52-3.55a5.74,5.74,0,0,1,1.28,3.9,10,10,0,0,1-1,4.37A7.89,7.89,0,0,1,40,31.45a8.27,8.27,0,0,1-4.59,1.23,4.88,4.88,0,0,1-3.89-1.49,5.71,5.71,0,0,1-1.3-3.89,9.93,9.93,0,0,1,1-4.38,7.87,7.87,0,0,1,2.9-3.25,8.35,8.35,0,0,1,4.61-1.23A4.86,4.86,0,0,1,42.61,19.91ZM19.06,14.38a.4.4,0,0,0-.45.42l-2.24,16,0,.13q0,.29.32.29h.7a6.63,6.63,0,0,0,4.48-1.41,8.39,8.39,0,0,0,2.43-3.9,17.24,17.24,0,0,0,.7-5.06q0-3.46-1.22-5a4.85,4.85,0,0,0-4-1.5Zm8.26,1a7.93,7.93,0,0,1,2.27,6.13A12.08,12.08,0,0,1,28.34,27a9.17,9.17,0,0,1-3.82,3.9,12.93,12.93,0,0,1-6.38,1.44H10l.16-1.18,1.25.06h0a.42.42,0,0,0,.38-.21,1.18,1.18,0,0,0,.16-.5L14.16,15v-.13q0-.54-.48-.54l-1.15.06.16-1.18h7.74Q25,13.26,27.31,15.35Z"/></clipPath><clipPath id="clip-path-3"><path class="cls-1" d="M544.66,168.24a1.34,1.34,0,0,1-.59-1.11,2.46,2.46,0,0,1,.29-1.09,2.59,2.59,0,0,0,.25-1,1.28,1.28,0,0,0-.69-1.13,3.5,3.5,0,0,0-1.83-.42,2.9,2.9,0,0,0-2.08.74,2.51,2.51,0,0,0-.82,1.79,2.27,2.27,0,0,0,.9,1.74,17.46,17.46,0,0,0,2.71,1.66,28.89,28.89,0,0,1,2.52,1.43,5.81,5.81,0,0,1,1.64,1.62,4.11,4.11,0,0,1,.67,2.37,4.9,4.9,0,0,1-2.39,4.41,10.88,10.88,0,0,1-5.92,1.51,9.09,9.09,0,0,1-4.75-1.11,3.24,3.24,0,0,1-1.85-2.79,2.69,2.69,0,0,1,.76-2,2.79,2.79,0,0,1,2.1-.78q2.06,0,2.06,1.55a2.29,2.29,0,0,1-.34,1.13,2.55,2.55,0,0,0-.25.92,1.28,1.28,0,0,0,.67,1.13,3.47,3.47,0,0,0,1.85.42,4.3,4.3,0,0,0,2.54-.67,2,2,0,0,0,.95-1.72,2.27,2.27,0,0,0-.86-1.79,13.43,13.43,0,0,0-2.62-1.62,25.27,25.27,0,0,1-2.52-1.45,6.12,6.12,0,0,1-1.66-1.68,4.29,4.29,0,0,1-.69-2.46,4.92,4.92,0,0,1,2.25-4.31,9.34,9.34,0,0,1,5.4-1.53,9.69,9.69,0,0,1,3.28.53,5.84,5.84,0,0,1,2.31,1.41,2.79,2.79,0,0,1,.1,3.88,2.71,2.71,0,0,1-3.38.34Zm-11.85-4.87a3.53,3.53,0,0,1,.8,2.29,3.79,3.79,0,0,1-.82,2.39,2.78,2.78,0,0,1-2.33,1,2.66,2.66,0,0,1-1.34-.34,1.24,1.24,0,0,1-.59-1.18,2.6,2.6,0,0,1,.15-.82,2.33,2.33,0,0,0,.15-.65.53.53,0,0,0-.13-.36.38.38,0,0,0-.29-.15q-.88,0-2,1.47a18.72,18.72,0,0,0-2,3.78,26.42,26.42,0,0,0-1.47,4.66l-.59,4.83h-5.17q1.93-11.47,1.93-14.24,0-1.34-1.22-1.34a2.76,2.76,0,0,0-.67.08l-.17-1.51q1.6-.5,3-.8a13,13,0,0,1,2.75-.29q2.06,0,2.06,1.09,0,.59-1,6a16.48,16.48,0,0,1,2.9-5,5,5,0,0,1,3.74-2A2.8,2.8,0,0,1,532.81,163.37Zm-27.54,12a24.63,24.63,0,0,0,2.63-5,13.58,13.58,0,0,0,1.13-4.83,1.78,1.78,0,0,0-1.93-1.89,3.66,3.66,0,0,0-2.88,1.81,13.82,13.82,0,0,0-2.08,4.79,16.47,16.47,0,0,0-.67,4.62,4.32,4.32,0,0,0,.36,2,1.09,1.09,0,0,0,1,.67Q503.78,177.5,505.27,175.36Zm9.35,1.3.46,1.18a11.06,11.06,0,0,1-3.15,2.1,8.22,8.22,0,0,1-3.36.84,1.38,1.38,0,0,1-1.2-.44,2.65,2.65,0,0,1-.32-1.49,30.58,30.58,0,0,1,.59-4.28q.08-.76.17-1.13A15.81,15.81,0,0,1,504,179a6.6,6.6,0,0,1-4.26,1.74,3.34,3.34,0,0,1-2.86-1.36,6.21,6.21,0,0,1-1-3.76,15.6,15.6,0,0,1,1.43-6.51,13.6,13.6,0,0,1,3.86-5.1,8.34,8.34,0,0,1,5.33-2,4,4,0,0,1,1.81.42,3.12,3.12,0,0,1,1.3,1.18l.25-1,5.42-.59-1,4q-.76,3.11-1.28,6.15a29.71,29.71,0,0,0-.53,4.18q0,.71.55.71A2.81,2.81,0,0,0,514.61,176.66ZM485.8,167a15.17,15.17,0,0,0-1.13,4.33,9,9,0,0,0,4.73-2.08,5,5,0,0,0,1.62-3.76,2.2,2.2,0,0,0-.4-1.36,1.46,1.46,0,0,0-1.24-.53Q487.22,163.56,485.8,167Zm8.57,1.91a9.22,9.22,0,0,1-3.59,2.39,22,22,0,0,1-6.24,1.41v.63a5.41,5.41,0,0,0,.86,3.34,2.83,2.83,0,0,0,2.37,1.11,6.72,6.72,0,0,0,2.52-.55,10.5,10.5,0,0,0,2.6-1.55l.92.84a10.8,10.8,0,0,1-3.72,3.09,10,10,0,0,1-4.6,1.15,6.31,6.31,0,0,1-4.85-1.87,7.25,7.25,0,0,1-1.74-5.15,11.95,11.95,0,0,1,5.5-10.08,9.65,9.65,0,0,1,5.21-1.55,7.49,7.49,0,0,1,4.26,1.09A3.31,3.31,0,0,1,495.5,166,4.39,4.39,0,0,1,494.36,168.87Zm-16.37-6a3.27,3.27,0,0,1,.78,2.31,15,15,0,0,1-1.89,6.07,64.54,64.54,0,0,1-4.75,8,42.26,42.26,0,0,1-6.8,8.11q-3.4,3-5.8,3a3.09,3.09,0,0,1-2.29-.82,2.87,2.87,0,0,1-.82-2.12,2.48,2.48,0,0,1,.73-1.83,2.38,2.38,0,0,1,1.74-.74,2.11,2.11,0,0,1,1.24.31,3.83,3.83,0,0,1,.86.9,4.89,4.89,0,0,0,.61.65.93.93,0,0,0,.61.19,4.37,4.37,0,0,0,2.46-1.32,28.08,28.08,0,0,0,3.46-3.76L463.74,166a2.33,2.33,0,0,0-.46-1.07,1,1,0,0,0-.76-.32,5.33,5.33,0,0,0-1,.13l-.25-1.43a15.87,15.87,0,0,1,4.87-1.09,2.48,2.48,0,0,1,1.72.57,4.58,4.58,0,0,1,1,2.25l2.86,11.68q4.2-6.55,4.2-8.95a.87.87,0,0,0-.34-.8,2.2,2.2,0,0,0-1-.25,1.48,1.48,0,0,1-1.24-.57,2.51,2.51,0,0,1-.44-1.57,2.33,2.33,0,0,1,.78-1.83,3,3,0,0,1,2.08-.69A2.8,2.8,0,0,1,478,162.89Zm-40.65,11q0,3,.92,4.22a3.43,3.43,0,0,0,2.9,1.2,4.59,4.59,0,0,0,3.07-1,7.81,7.81,0,0,0,2.06-3.51,40.16,40.16,0,0,0,1.47-6.93,51.44,51.44,0,0,0,.55-6.13q0-3.07-.92-4.28a3.45,3.45,0,0,0-2.94-1.22,4.34,4.34,0,0,0-3,1.07,8.45,8.45,0,0,0-2.06,3.59,39.75,39.75,0,0,0-1.49,7A49.45,49.45,0,0,0,437.35,173.89Zm13.78-16.36q2.44,2.67,2.44,7.5a21,21,0,0,1-1.3,7.12,14.6,14.6,0,0,1-4.14,6.13,10.37,10.37,0,0,1-7.12,2.5,8.39,8.39,0,0,1-6.55-2.65q-2.39-2.65-2.39-7.39a21.18,21.18,0,0,1,1.32-7.2,14.73,14.73,0,0,1,4.16-6.17,10.31,10.31,0,0,1,7.08-2.5A8.39,8.39,0,0,1,451.13,157.53ZM426,178.22v.21a.56.56,0,0,0,.63.63l2.39,0-.13,1.34H417.31l.17-1.34,2.44,0a.88.88,0,0,0,1-.84L423.44,160v-.17a.49.49,0,0,0-.21-.46.62.62,0,0,0-.55,0l-2.9,1-.25-1.6a22.6,22.6,0,0,0,6.38-2.65q1.13-.67,2.56-1.72h.88Zm-18-14.85a3.53,3.53,0,0,1,.8,2.29,3.79,3.79,0,0,1-.82,2.39,2.78,2.78,0,0,1-2.33,1,2.66,2.66,0,0,1-1.34-.34,1.24,1.24,0,0,1-.59-1.18,2.6,2.6,0,0,1,.15-.82,2.33,2.33,0,0,0,.15-.65.53.53,0,0,0-.13-.36.38.38,0,0,0-.29-.15q-.88,0-2,1.47a18.72,18.72,0,0,0-2,3.78,26.41,26.41,0,0,0-1.47,4.66l-.59,4.83h-5.17q1.93-11.47,1.93-14.24,0-1.34-1.22-1.34a2.76,2.76,0,0,0-.67.08l-.17-1.51q1.6-.5,3-.8a13,13,0,0,1,2.75-.29q2.06,0,2.06,1.09,0,.59-1,6a16.48,16.48,0,0,1,2.9-5,5,5,0,0,1,3.74-2A2.8,2.8,0,0,1,408.06,163.37ZM382,167a15.17,15.17,0,0,0-1.13,4.33,9,9,0,0,0,4.72-2.08,5,5,0,0,0,1.62-3.76,2.2,2.2,0,0,0-.4-1.36,1.46,1.46,0,0,0-1.24-.53Q383.4,163.56,382,167Zm8.57,1.91a9.22,9.22,0,0,1-3.59,2.39,22,22,0,0,1-6.24,1.41v.63a5.41,5.41,0,0,0,.86,3.34,2.83,2.83,0,0,0,2.37,1.11,6.72,6.72,0,0,0,2.52-.55,10.5,10.5,0,0,0,2.6-1.55l.92.84a10.8,10.8,0,0,1-3.72,3.09,10,10,0,0,1-4.6,1.15,6.31,6.31,0,0,1-4.85-1.87,7.25,7.25,0,0,1-1.74-5.15,11.95,11.95,0,0,1,5.5-10.08,9.65,9.65,0,0,1,5.21-1.55,7.49,7.49,0,0,1,4.26,1.09,3.31,3.31,0,0,1,1.62,2.86A4.39,4.39,0,0,1,390.54,168.87Zm-15.74-6a3.19,3.19,0,0,1,.78,2.29,11.74,11.74,0,0,1-1.58,5.31,32.84,32.84,0,0,1-3.86,5.75,28.24,28.24,0,0,1-4.3,4.31h-1.47L360.55,166a2.33,2.33,0,0,0-.46-1.07,1,1,0,0,0-.76-.32,5.33,5.33,0,0,0-1,.13l-.25-1.43a15.87,15.87,0,0,1,4.87-1.09,2.58,2.58,0,0,1,1.76.59,4,4,0,0,1,1,2.23l2.44,11a26.92,26.92,0,0,0,3.3-4.41,7.88,7.88,0,0,0,1.28-3.86q0-1.05-1.3-1.05a1.48,1.48,0,0,1-1.24-.57,2.51,2.51,0,0,1-.44-1.57,2.33,2.33,0,0,1,.78-1.83,3,3,0,0,1,2.08-.69A2.84,2.84,0,0,1,374.8,162.91Zm-28,5.78a22.66,22.66,0,0,0-.84,6.09q0,4.2,2.18,4.2,2.56,0,3.95-5a22.88,22.88,0,0,0,.76-5.88q0-4.24-2.14-4.24Q348.15,163.85,346.76,168.68Zm9.87-4.66a7.53,7.53,0,0,1,1.68,5.12,13.07,13.07,0,0,1-1.28,5.73,10.35,10.35,0,0,1-3.78,4.28,10.86,10.86,0,0,1-6,1.62,6.41,6.41,0,0,1-5.1-2,7.49,7.49,0,0,1-1.7-5.1A13,13,0,0,1,341.7,168a10.33,10.33,0,0,1,3.8-4.26,11,11,0,0,1,6-1.62A6.38,6.38,0,0,1,356.63,164Zm-25-.65a3.53,3.53,0,0,1,.8,2.29,3.79,3.79,0,0,1-.82,2.39,2.78,2.78,0,0,1-2.33,1,2.66,2.66,0,0,1-1.34-.34,1.24,1.24,0,0,1-.59-1.18,2.6,2.6,0,0,1,.15-.82,2.33,2.33,0,0,0,.15-.65.53.53,0,0,0-.13-.36.38.38,0,0,0-.29-.15q-.88,0-2,1.47a18.72,18.72,0,0,0-2,3.78,26.41,26.41,0,0,0-1.47,4.66l-.59,4.83H316q1.93-11.47,1.93-14.24,0-1.34-1.22-1.34a2.76,2.76,0,0,0-.67.08l-.17-1.51q1.6-.5,3-.8a13,13,0,0,1,2.75-.29q2.06,0,2.06,1.09,0,.59-1,6a16.48,16.48,0,0,1,2.9-5,5,5,0,0,1,3.74-2A2.8,2.8,0,0,1,331.59,163.37Zm-28.9,5.31a22.66,22.66,0,0,0-.84,6.09q0,4.2,2.18,4.2,2.56,0,3.95-5a22.88,22.88,0,0,0,.76-5.88q0-4.24-2.14-4.24Q304.07,163.85,302.69,168.68Zm9.87-4.66a7.53,7.53,0,0,1,1.68,5.12,13.07,13.07,0,0,1-1.28,5.73,10.35,10.35,0,0,1-3.78,4.28,10.86,10.86,0,0,1-6,1.62,6.41,6.41,0,0,1-5.1-2,7.49,7.49,0,0,1-1.7-5.1,13,13,0,0,1,1.28-5.75,10.33,10.33,0,0,1,3.8-4.26,11,11,0,0,1,6-1.62A6.38,6.38,0,0,1,312.56,164Zm-11-13.23a3.22,3.22,0,0,1,1.47,2.65,3,3,0,0,1-.76,2,2.77,2.77,0,0,1-2.23.88,2.62,2.62,0,0,1-1.55-.42,1.29,1.29,0,0,1-.59-1.09,2.46,2.46,0,0,1,.29-1.09,3.84,3.84,0,0,0,.34-1.3q0-1.26-1.18-1.26-3,0-3.74,10.16l-.13,1.09h3.19v1l-.88.67h-2.48L292,176.08a27.18,27.18,0,0,1-3.25,10.56,7.38,7.38,0,0,1-6.57,4,6.24,6.24,0,0,1-3.63-1A3.05,3.05,0,0,1,277,187a2.89,2.89,0,0,1,.78-2,2.82,2.82,0,0,1,2.21-.86,2.64,2.64,0,0,1,1.51.4,1.31,1.31,0,0,1,.59,1.15,3.22,3.22,0,0,1-.25,1,2.77,2.77,0,0,0-.34,1.22q0,1.26,1.18,1.26,1.51,0,2.31-2.75a51.11,51.11,0,0,0,1.3-9.14L287.77,164h-2.9l.76-1.64H288l0-.5a17.4,17.4,0,0,1,3.15-8.8,7.92,7.92,0,0,1,6.59-3.38A6.17,6.17,0,0,1,301.55,150.79Z"/></clipPath><clipPath id="clip-path-4"><path class="cls-1" d="M543.89,220.6a1.2,1.2,0,0,1-.53-1,2.2,2.2,0,0,1,.26-1,2.32,2.32,0,0,0,.23-.86,1.14,1.14,0,0,0-.62-1,3.13,3.13,0,0,0-1.64-.38,2.6,2.6,0,0,0-1.86.66,2.25,2.25,0,0,0-.73,1.6,2,2,0,0,0,.81,1.56,15.63,15.63,0,0,0,2.42,1.48,25.87,25.87,0,0,1,2.26,1.28,5.2,5.2,0,0,1,1.47,1.45,3.68,3.68,0,0,1,.6,2.12,4.38,4.38,0,0,1-2.14,3.95,9.74,9.74,0,0,1-5.3,1.35,8.14,8.14,0,0,1-4.25-1,2.9,2.9,0,0,1-1.65-2.5,2.41,2.41,0,0,1,.68-1.75,2.5,2.5,0,0,1,1.88-.7q1.84,0,1.84,1.39a2,2,0,0,1-.3,1,2.28,2.28,0,0,0-.23.83,1.15,1.15,0,0,0,.6,1,3.11,3.11,0,0,0,1.65.38,3.85,3.85,0,0,0,2.27-.6,1.82,1.82,0,0,0,.85-1.54,2,2,0,0,0-.77-1.6,12,12,0,0,0-2.35-1.45,22.61,22.61,0,0,1-2.26-1.3,5.47,5.47,0,0,1-1.48-1.5,3.84,3.84,0,0,1-.62-2.2,4.4,4.4,0,0,1,2-3.85,8.36,8.36,0,0,1,4.83-1.37,8.67,8.67,0,0,1,2.93.47,5.22,5.22,0,0,1,2.07,1.26,2.5,2.5,0,0,1,.09,3.48,2.42,2.42,0,0,1-3,.3Zm-15.15,1a45.47,45.47,0,0,0-.79,5.94q0,1.28,1.05,1.28a4.52,4.52,0,0,0,2.63-1.35l.86.83q-3,3.5-6.47,3.5a3.41,3.41,0,0,1-2.37-.7,2.32,2.32,0,0,1-.75-1.79,45.67,45.67,0,0,1,.64-4.85l.23-1.5,1-6.05h-2.93l.86-1.43H525l.56-3.46,5.07-.86-.79,4.32h3.65v.83l-1.09.6H529.6Q529,220.2,528.74,221.59Zm-8.46,7.59a14,14,0,0,1-3.14,1.92,7.14,7.14,0,0,1-2.73.71,1.5,1.5,0,0,1-1.13-.47,1.69,1.69,0,0,1-.45-1.22,16.67,16.67,0,0,1,.43-2.93l.51-2.44a33.68,33.68,0,0,0,.94-5.19,1.37,1.37,0,0,0-.3-.94,1,1,0,0,0-.83-.34,3,3,0,0,0-2,1.28,14.71,14.71,0,0,0-2.07,3.27,22.76,22.76,0,0,0-1.48,3.95l-.56,4.66h-4.62a112.22,112.22,0,0,0,1.73-12.74q0-1.2-1.09-1.2a2.47,2.47,0,0,0-.6.08l-.15-1.35q1.43-.45,2.65-.71a11.66,11.66,0,0,1,2.46-.26q1.84,0,1.84,1a31.79,31.79,0,0,1-.6,3.68l-.34,2a17.85,17.85,0,0,1,3.25-4.87,5.76,5.76,0,0,1,4.23-2,3.23,3.23,0,0,1,2.44.94,3.38,3.38,0,0,1,.9,2.44,10.31,10.31,0,0,1-.26,2.07q-.26,1.24-.79,3.5a22,22,0,0,0-.79,3.72,1.22,1.22,0,0,0,.15.58.58.58,0,0,0,.56.28,2.6,2.6,0,0,0,1.39-.49Zm-26.81-9.74a13.58,13.58,0,0,0-1,3.87,8,8,0,0,0,4.23-1.86,4.46,4.46,0,0,0,1.45-3.36,2,2,0,0,0-.36-1.22,1.3,1.3,0,0,0-1.11-.47Q494.75,216.4,493.47,219.45Zm7.67,1.71a8.25,8.25,0,0,1-3.21,2.14,19.7,19.7,0,0,1-5.58,1.26v.56a4.84,4.84,0,0,0,.77,3,2.54,2.54,0,0,0,2.12,1,6,6,0,0,0,2.26-.49,9.4,9.4,0,0,0,2.33-1.39l.83.75a9.67,9.67,0,0,1-3.33,2.76,8.91,8.91,0,0,1-4.12,1,5.65,5.65,0,0,1-4.34-1.67,6.49,6.49,0,0,1-1.56-4.6,10.69,10.69,0,0,1,4.92-9,8.64,8.64,0,0,1,4.66-1.39,6.7,6.7,0,0,1,3.82,1,3,3,0,0,1,1.45,2.56A3.93,3.93,0,0,1,501.14,221.16Zm-18.18,10a5.73,5.73,0,0,1-2.46.7,2,2,0,0,1-1.35-.43,1.64,1.64,0,0,1-.49-1.3,17.05,17.05,0,0,1,.23-2.16l.3-2,.45-2.86a42.37,42.37,0,0,0,.45-4.62q0-.94-1.13-.94a2.47,2.47,0,0,0-.6.08l-.19-1.35a19,19,0,0,1,5.6-1,2.53,2.53,0,0,1,1.15.21.9.9,0,0,1,.39.88,25.74,25.74,0,0,1-.45,2.59q-.64,3.27-.75,3.87a29.13,29.13,0,0,0-.6,4.81q0,1,.64,1a2.56,2.56,0,0,0,1.35-.49l.45,1.05A17.32,17.32,0,0,1,483,231.12Zm2.69-23.83a1.73,1.73,0,0,1,.71,1.45,2.4,2.4,0,0,1-.9,2,3.7,3.7,0,0,1-2.37.71,3,3,0,0,1-1.88-.55,1.73,1.73,0,0,1-.71-1.45,2.4,2.4,0,0,1,.92-2,3.54,3.54,0,0,1,2.31-.75A3.08,3.08,0,0,1,485.64,207.29Zm-13.46,14.3a45.46,45.46,0,0,0-.79,5.94q0,1.28,1.05,1.28a4.52,4.52,0,0,0,2.63-1.35l.86.83q-3,3.5-6.47,3.5a3.41,3.41,0,0,1-2.37-.7,2.32,2.32,0,0,1-.75-1.79,45.67,45.67,0,0,1,.64-4.85l.23-1.5,1-6.05H465.3l.86-1.43h2.29L469,212l5.07-.86-.79,4.32H477v.83l-1.09.6H473Q472.41,220.2,472.18,221.59ZM454.83,227a22,22,0,0,0,2.35-4.47,12.16,12.16,0,0,0,1-4.32,1.59,1.59,0,0,0-1.73-1.69,3.27,3.27,0,0,0-2.57,1.62,12.37,12.37,0,0,0-1.86,4.29,14.74,14.74,0,0,0-.6,4.13,3.86,3.86,0,0,0,.32,1.77,1,1,0,0,0,.88.6Q453.49,228.88,454.83,227Zm8.36,1.17.41,1.05a9.9,9.9,0,0,1-2.82,1.88,7.36,7.36,0,0,1-3,.75,1.24,1.24,0,0,1-1.07-.39,2.37,2.37,0,0,1-.28-1.33,27.37,27.37,0,0,1,.53-3.83q.08-.68.15-1a14.15,14.15,0,0,1-3.44,5,5.91,5.91,0,0,1-3.82,1.56,3,3,0,0,1-2.56-1.22,5.56,5.56,0,0,1-.9-3.36,14,14,0,0,1,1.28-5.83,12.18,12.18,0,0,1,3.46-4.57,7.47,7.47,0,0,1,4.77-1.75,3.56,3.56,0,0,1,1.62.38,2.8,2.8,0,0,1,1.17,1.05l.23-.86,4.85-.53-.86,3.61q-.68,2.78-1.15,5.51a26.59,26.59,0,0,0-.47,3.74q0,.64.49.64A2.52,2.52,0,0,0,463.19,228.13ZM438,210.32a.61.61,0,0,0-.53.45l-1.43,10h2a3.12,3.12,0,0,0,2.11-.86,6.15,6.15,0,0,0,1.58-2.35,8.48,8.48,0,0,0,.6-3.21,5,5,0,0,0-.77-2.93,2.46,2.46,0,0,0-2.12-1.09Zm8,0a4.57,4.57,0,0,1,1.84,4,8,8,0,0,1-1,4.08,7,7,0,0,1-2.93,2.76,9.35,9.35,0,0,1-4.34,1H435.9l-1,7.18v.19q0,.64.6.64l1.84-.08-.19,1.39h-9.77l.19-1.39,1.32.08h.08q.64,0,.75-.83l2.56-18.16,0-.26q0-.6-.71-.56l-1.24.08.19-1.39h9.81A9.75,9.75,0,0,1,446,210.32Zm-26.27,5.51a2.86,2.86,0,0,1,.7,2,10.51,10.51,0,0,1-1.41,4.76,29.4,29.4,0,0,1-3.46,5.15,24.26,24.26,0,0,1-3.89,3.85h-1.28l-1.84-7.29a33,33,0,0,1-3.1,4.13,24.17,24.17,0,0,1-3.25,3.16h-1.32l-3.42-13a2.08,2.08,0,0,0-.41-1,.88.88,0,0,0-.68-.28,4.77,4.77,0,0,0-.86.11l-.23-1.28a14.2,14.2,0,0,1,4.36-1,2.31,2.31,0,0,1,1.58.53,3.6,3.6,0,0,1,.9,2l2.18,9.85a20,20,0,0,0,3.68-5.49l-1.13-4a11.25,11.25,0,0,0-1-2.67h5.26l2.67,12.14a25.41,25.41,0,0,0,3-4,7,7,0,0,0,1.15-3.42q0-.94-1.13-.94a1.32,1.32,0,0,1-1.11-.51,2.24,2.24,0,0,1-.39-1.41,2.09,2.09,0,0,1,.7-1.64,2.69,2.69,0,0,1,1.86-.62A2.54,2.54,0,0,1,419.7,215.82Zm-32.76,3.63a13.58,13.58,0,0,0-1,3.87,8,8,0,0,0,4.23-1.86,4.46,4.46,0,0,0,1.45-3.36,2,2,0,0,0-.36-1.22,1.3,1.3,0,0,0-1.11-.47Q388.22,216.4,386.94,219.45Zm7.67,1.71a8.25,8.25,0,0,1-3.21,2.14,19.7,19.7,0,0,1-5.58,1.26v.56a4.84,4.84,0,0,0,.77,3,2.54,2.54,0,0,0,2.12,1,6,6,0,0,0,2.26-.49,9.4,9.4,0,0,0,2.33-1.39l.83.75a9.67,9.67,0,0,1-3.33,2.76,8.91,8.91,0,0,1-4.12,1,5.65,5.65,0,0,1-4.34-1.67,6.49,6.49,0,0,1-1.56-4.6,10.69,10.69,0,0,1,4.92-9,8.64,8.64,0,0,1,4.66-1.39,6.7,6.7,0,0,1,3.82,1,3,3,0,0,1,1.45,2.56A3.93,3.93,0,0,1,394.61,221.16Zm-13.39-11-1.54-.08q-.64,0-.75.79L376,231.67h-2.26L362,211.74l-2.48,17.86v.23q0,.6.56.6l1.84-.08-.15,1.09h-6.32l.15-1.09,1.47.08q.75,0,.86-.83l2.63-18.95a.65.65,0,0,0-.17-.45.51.51,0,0,0-.47-.15l-1.47.08.15-1.13h7.74l9.1,15.52,1.92-13.72v-.19q0-.56-.49-.56l-2,.08.15-1.13h6.32ZM341.4,234.65a16.71,16.71,0,0,0-3.57-1q-1.84-.34-2.52-.49a4.67,4.67,0,0,0-1.71,1.52,3.68,3.68,0,0,0-.73,2.16,2.19,2.19,0,0,0,1,1.86,5.13,5.13,0,0,0,3,.7,9.62,9.62,0,0,0,3-.43,5.37,5.37,0,0,0,2-1.13,2.07,2.07,0,0,0,.73-1.52A1.77,1.77,0,0,0,341.4,234.65Zm.68-16q0-2.48-1.54-2.48-2,0-3,3a12.91,12.91,0,0,0-.56,3.87q0,2.44,1.62,2.44a2.25,2.25,0,0,0,1.75-.77,6.32,6.32,0,0,0,1.18-2.2A11.58,11.58,0,0,0,342.08,218.7Zm7.8-6a1.51,1.51,0,0,1,.55,1.26,2.12,2.12,0,0,1-.47,1.3,1.62,1.62,0,0,1-1.37.62,1.36,1.36,0,0,1-.79-.19,1.84,1.84,0,0,1-.49-.56,2,2,0,0,0-.34-.43.67.67,0,0,0-.45-.13,2.34,2.34,0,0,0-1,.28,3.61,3.61,0,0,0-1.07.81,3.86,3.86,0,0,1,2.56,3.76A6.51,6.51,0,0,1,346,223a7.5,7.5,0,0,1-3.14,2.65,11.25,11.25,0,0,1-4.92,1,12,12,0,0,1-2.11-.19,1.9,1.9,0,0,0-.68,1.28q0,.75,1,1.13a17.68,17.68,0,0,0,3.06.75l1,.19a25.74,25.74,0,0,1,3.5.9,6,6,0,0,1,2.35,1.47,3.6,3.6,0,0,1,1,2.63,4.71,4.71,0,0,1-2.89,4.3,16.32,16.32,0,0,1-7.59,1.52,12.21,12.21,0,0,1-5.32-.9,2.82,2.82,0,0,1-1.79-2.59,3.34,3.34,0,0,1,1.22-2.48,9.59,9.59,0,0,1,3.36-1.88,5.52,5.52,0,0,1-2-1.11,2.2,2.2,0,0,1-.7-1.67,2.88,2.88,0,0,1,.53-1.62,7.32,7.32,0,0,1,1.65-1.65l1-.75a3.86,3.86,0,0,1-2.33-3.68,6.53,6.53,0,0,1,1.05-3.57,7.35,7.35,0,0,1,3.14-2.65,12.62,12.62,0,0,1,7.09-.81q2.67-3,5-3A2.33,2.33,0,0,1,349.88,212.7Zm-19.8,16.48a14,14,0,0,1-3.14,1.92,7.14,7.14,0,0,1-2.73.71,1.5,1.5,0,0,1-1.13-.47,1.69,1.69,0,0,1-.45-1.22,16.67,16.67,0,0,1,.43-2.93l.51-2.44a33.68,33.68,0,0,0,.94-5.19,1.37,1.37,0,0,0-.3-.94,1,1,0,0,0-.83-.34,3,3,0,0,0-2,1.28,14.71,14.71,0,0,0-2.07,3.27,22.76,22.76,0,0,0-1.48,3.95l-.56,4.66h-4.62a112.21,112.21,0,0,0,1.73-12.74q0-1.2-1.09-1.2a2.47,2.47,0,0,0-.6.08l-.15-1.35q1.43-.45,2.65-.71a11.66,11.66,0,0,1,2.46-.26q1.84,0,1.84,1a31.79,31.79,0,0,1-.6,3.68l-.34,2a17.85,17.85,0,0,1,3.25-4.87,5.76,5.76,0,0,1,4.23-2,3.23,3.23,0,0,1,2.44.94,3.38,3.38,0,0,1,.9,2.44,10.31,10.31,0,0,1-.26,2.07q-.26,1.24-.79,3.5a22,22,0,0,0-.79,3.72,1.22,1.22,0,0,0,.15.58.58.58,0,0,0,.56.28,2.6,2.6,0,0,0,1.39-.49Zm-22.47,1.94a5.73,5.73,0,0,1-2.46.7,2,2,0,0,1-1.35-.43,1.64,1.64,0,0,1-.49-1.3,17.05,17.05,0,0,1,.23-2.16l.3-2,.45-2.86a42.37,42.37,0,0,0,.45-4.62q0-.94-1.13-.94a2.47,2.47,0,0,0-.6.08l-.19-1.35a19,19,0,0,1,5.6-1,2.53,2.53,0,0,1,1.15.21.9.9,0,0,1,.39.88,25.74,25.74,0,0,1-.45,2.59q-.64,3.27-.75,3.87a29.13,29.13,0,0,0-.6,4.81q0,1,.64,1a2.56,2.56,0,0,0,1.35-.49l.45,1.05A17.32,17.32,0,0,1,307.62,231.12Zm2.69-23.83a1.73,1.73,0,0,1,.71,1.45,2.4,2.4,0,0,1-.9,2,3.7,3.7,0,0,1-2.37.71,3,3,0,0,1-1.88-.55,1.73,1.73,0,0,1-.71-1.45,2.4,2.4,0,0,1,.92-2,3.54,3.54,0,0,1,2.31-.75A3.08,3.08,0,0,1,310.3,207.29ZM301,229.19a13.55,13.55,0,0,1-3.06,1.92,6.88,6.88,0,0,1-2.69.71,1.48,1.48,0,0,1-1.65-1.69,34.35,34.35,0,0,1,.94-5.34,37.8,37.8,0,0,0,.9-5.15,1.57,1.57,0,0,0-.28-1,1,1,0,0,0-.81-.36,2.91,2.91,0,0,0-2,1.32,14.85,14.85,0,0,0-2,3.35,20.92,20.92,0,0,0-1.37,4l-.56,4.47h-4.62a91.11,91.11,0,0,0,1.69-11.69q0-1.47-1-1.47a2.76,2.76,0,0,0-1.9,1.22,15.6,15.6,0,0,0-2,3.1,20.79,20.79,0,0,0-1.47,3.8l0,.15-.6,4.89h-4.62q.79-4.7,1.28-8a36.31,36.31,0,0,0,.49-4.77q0-1.2-1.09-1.2a2.47,2.47,0,0,0-.6.08l-.15-1.35q1.43-.45,2.65-.71a11.66,11.66,0,0,1,2.46-.26q1.84,0,1.84,1a14.73,14.73,0,0,1-.24,1.67l-.36,2-.34,1.88A17.77,17.77,0,0,1,283,217a5.7,5.7,0,0,1,4.15-1.9,2.84,2.84,0,0,1,2.18.94,3.47,3.47,0,0,1,.86,2.44,14.21,14.21,0,0,1-.3,2.52q3.12-5.9,7-5.9a3.23,3.23,0,0,1,2.44.94,3.38,3.38,0,0,1,.9,2.44,10.69,10.69,0,0,1-.26,2.12q-.26,1.26-.79,3.48-.08.38-.41,1.75a9.5,9.5,0,0,0-.34,1.94,1.22,1.22,0,0,0,.15.58.58.58,0,0,0,.56.28,2.6,2.6,0,0,0,1.39-.49ZM262,221a20.28,20.28,0,0,0-.75,5.45q0,3.76,2,3.76,2.29,0,3.53-4.47a20.48,20.48,0,0,0,.68-5.26q0-3.8-1.92-3.8Q263.23,216.67,262,221Zm8.83-4.17a6.74,6.74,0,0,1,1.5,4.59,11.7,11.7,0,0,1-1.15,5.13,9.26,9.26,0,0,1-3.38,3.83,9.72,9.72,0,0,1-5.39,1.45,5.73,5.73,0,0,1-4.57-1.75,6.7,6.7,0,0,1-1.52-4.57,11.66,11.66,0,0,1,1.15-5.15,9.25,9.25,0,0,1,3.4-3.82,9.81,9.81,0,0,1,5.41-1.45A5.71,5.71,0,0,1,270.82,216.82Zm-16.21-.71a3,3,0,0,1,1.47,2.59,2.67,2.67,0,0,1-.73,1.88,2.61,2.61,0,0,1-2,.79A2.52,2.52,0,0,1,252,221a1.18,1.18,0,0,1-.55-1.11,2.87,2.87,0,0,1,.3-1.09,2.38,2.38,0,0,0,.3-1,1.32,1.32,0,0,0-.43-1.05,1.63,1.63,0,0,0-1.11-.38q-2,0-3.27,3.16a13.94,13.94,0,0,0-1.09,5.53,4.93,4.93,0,0,0,.77,3,2.52,2.52,0,0,0,2.12,1,6.1,6.1,0,0,0,2.29-.51,8.91,8.91,0,0,0,2.29-1.37l.83.75a10.05,10.05,0,0,1-3.33,2.74,8.71,8.71,0,0,1-4.08,1.05,5.73,5.73,0,0,1-4.38-1.65,6.47,6.47,0,0,1-1.56-4.62,10.34,10.34,0,0,1,1.37-5.24,10.5,10.5,0,0,1,3.63-3.78,9,9,0,0,1,4.77-1.39A6.32,6.32,0,0,1,254.62,216.1Zm-19.44-9.55a1.6,1.6,0,0,0-.9-.23,4.32,4.32,0,0,0-.9.08l-.19-1.2a17.38,17.38,0,0,1,5.94-1.2,2.57,2.57,0,0,1,1.2.23.89.89,0,0,1,.41.86,11.66,11.66,0,0,1-.19,1.41q-.19,1.11-.3,1.82-.08.34-.53,2.86-2.11,12.89-2.26,16.43a1.74,1.74,0,0,0,.13.73.58.58,0,0,0,.58.28,2.91,2.91,0,0,0,.7-.11,3,3,0,0,0,.85-.38l.49,1.05a13.42,13.42,0,0,1-3.06,1.94,6.87,6.87,0,0,1-2.73.7,2,2,0,0,1-1.37-.45,1.62,1.62,0,0,1-.51-1.28q0-1,1.24-9.13l.49-3.42q1.24-8.61,1.24-10.3A.76.76,0,0,0,235.18,206.56Zm-12,12.89a13.58,13.58,0,0,0-1,3.87,8,8,0,0,0,4.23-1.86,4.46,4.46,0,0,0,1.45-3.36,2,2,0,0,0-.36-1.22,1.3,1.3,0,0,0-1.11-.47Q224.42,216.4,223.14,219.45Zm7.67,1.71a8.25,8.25,0,0,1-3.21,2.14,19.7,19.7,0,0,1-5.58,1.26v.56a4.84,4.84,0,0,0,.77,3,2.54,2.54,0,0,0,2.12,1,6,6,0,0,0,2.26-.49,9.4,9.4,0,0,0,2.33-1.39l.83.75a9.67,9.67,0,0,1-3.33,2.76,8.91,8.91,0,0,1-4.12,1,5.65,5.65,0,0,1-4.34-1.67,6.49,6.49,0,0,1-1.56-4.6,10.69,10.69,0,0,1,4.92-9,8.64,8.64,0,0,1,4.66-1.39,6.7,6.7,0,0,1,3.82,1,3,3,0,0,1,1.45,2.56A3.93,3.93,0,0,1,230.81,221.16ZM222.2,209l-.23,1.39-1.09-.08a.86.86,0,0,0-.6.24,1.9,1.9,0,0,0-.41.55l-9.81,20.71h-1.73L204,213.89l-8.5,17.93h-1.88l-4.66-20.67q-.11-.83-.6-.83l-1.17.08.19-1.39h9.55l-.19,1.39-1.92-.08q-.53,0-.53.49a1.14,1.14,0,0,0,0,.34l3,13.42,6.16-12.89-.08-.3a4.06,4.06,0,0,0-.28-.81.49.49,0,0,0-.47-.24l-1.58.08.19-1.39h9.25l-.19,1.39-1.58-.08a.46.46,0,0,0-.41.28.71.71,0,0,0-.08.55l3.23,14.32,6.8-14.4a2.26,2.26,0,0,0,.08-.38.33.33,0,0,0-.38-.38l-2,.08.26-1.39Zm-44.12,6.82a2.86,2.86,0,0,1,.7,2,10.51,10.51,0,0,1-1.41,4.76,29.4,29.4,0,0,1-3.46,5.15,24.26,24.26,0,0,1-3.89,3.85h-1.28l-1.84-7.29a33,33,0,0,1-3.1,4.13,24.17,24.17,0,0,1-3.25,3.16h-1.32l-3.42-13a2.08,2.08,0,0,0-.41-1,.88.88,0,0,0-.68-.28,4.77,4.77,0,0,0-.86.11l-.23-1.28a14.2,14.2,0,0,1,4.36-1,2.31,2.31,0,0,1,1.58.53,3.6,3.6,0,0,1,.9,2l2.18,9.85a20,20,0,0,0,3.68-5.49l-1.13-4a11.26,11.26,0,0,0-1-2.67h5.26l2.67,12.14a25.41,25.41,0,0,0,3-4,7,7,0,0,0,1.15-3.42q0-.94-1.13-.94a1.32,1.32,0,0,1-1.11-.51,2.24,2.24,0,0,1-.39-1.41,2.09,2.09,0,0,1,.7-1.64,2.69,2.69,0,0,1,1.86-.62A2.54,2.54,0,0,1,178.08,215.82ZM142.53,221a20.28,20.28,0,0,0-.75,5.45q0,3.76,2,3.76,2.29,0,3.53-4.47a20.48,20.48,0,0,0,.68-5.26q0-3.8-1.92-3.8Q143.77,216.67,142.53,221Zm8.83-4.17a6.74,6.74,0,0,1,1.5,4.59,11.7,11.7,0,0,1-1.15,5.13,9.26,9.26,0,0,1-3.38,3.83,9.72,9.72,0,0,1-5.39,1.45,5.73,5.73,0,0,1-4.57-1.75,6.7,6.7,0,0,1-1.52-4.57,11.66,11.66,0,0,1,1.15-5.15,9.25,9.25,0,0,1,3.4-3.82,9.81,9.81,0,0,1,5.41-1.45A5.71,5.71,0,0,1,151.36,216.82Zm-14.06-6.69-1.54-.08q-.64,0-.75.79l-2.93,20.82h-2.26l-11.77-19.92-2.48,17.86v.23q0,.6.56.6l1.84-.08-.15,1.09h-6.32l.15-1.09,1.47.08q.75,0,.86-.83l2.63-18.95a.65.65,0,0,0-.17-.45.51.51,0,0,0-.47-.15l-1.47.08.15-1.13h7.74l9.1,15.52,1.92-13.72v-.19q0-.56-.49-.56l-2,.08.15-1.13h6.32Z"/></clipPath></defs><title>Artboard 1</title><g class="cls-2"><rect class="cls-3" x="102.64" y="2.1" width="455.17" height="141.62"/></g><g class="cls-4"><rect class="cls-5" x="5" y="4" width="267" height="74.2"/></g><g class="cls-6"><rect class="cls-5" x="272.02" y="144.7" width="281.75" height="50.95"/></g><g class="cls-7"><rect class="cls-8" x="107.04" y="199.53" width="445.01" height="45.6"/></g></svg>