<?xml version="1.0" encoding="UTF-8"?>
<svg width="553px" height="135px" viewBox="0 0 553 135" version="1.1" xmlns="http://www.w3.org/2000/svg" xmlns:xlink="http://www.w3.org/1999/xlink">
    <!-- Generator: Sketch 47 (45396) - http://www.bohemiancoding.com/sketch -->
    <title>Group 8</title>
    <desc>Created with Sketch.</desc>
    <defs>
        <polygon id="path-1" points="221.536059 37.5319149 0 37.5319149 0 0.306510638 221.536059 0.306510638 183.181258 0.307053181 183.181258 37.5321482 221.536577 37.5321482 221.536577 0.307053181"></polygon>
        <polygon id="path-3" points="0 37.5319149 0 0.306510638 221.536059 0.306510638 183.181258 0.307053181 183.181258 37.5321482 221.536577 37.5321482 221.536577 0.307053181"></polygon>
        <polygon id="path-5" points="0 37.5319149 0 0.306510638 221.536059 0.306510638 183.181258 0.307053181 183.181258 37.5321482 221.536577 37.5321482 221.536577 0.307053181 110.768289 18.919484"></polygon>
    </defs>
    <g id="Page-1" stroke="none" stroke-width="1" fill="none" fill-rule="evenodd">
        <g id="Desktop-HD" transform="translate(-107.000000, -236.000000)">
            <g id="slide2" transform="translate(93.000000, -77.000000)">
                <g id="Group-8" transform="translate(4.000000, 311.000000)">
                    <text id="“Dr.-Arrick-and-the" font-family="Unna-BoldItalic, Unna" font-size="32" font-style="italic" font-weight="bold" line-spacing="33" letter-spacing="-0.410000026" fill="#636363">
                        <tspan x="8" y="28">“Dr. Arrick and the team </tspan>
                        <tspan x="8" y="61">  at Smiles at Glenwood is</tspan>
                    </text>
                    <text id="Awesome" font-family="Montserrat-ExtraBold, Montserrat" font-size="93" font-weight="600" line-spacing="71.4000015" fill="#6C54A3">
                        <tspan x="34.807" y="116.868309">Awesome</tspan>
                    </text>
                    <g id="Group-4" transform="translate(337.000000, 13.000000)">
                        <g id="Page-1">
                            <g id="Group-3" transform="translate(0.000000, 0.331474)" fill="#FFD600">
                                <path d="M6.86294606,36.1876468 C6.85060318,37.2854553 7.48934687,37.7483489 8.41814808,37.3949234 C8.64649123,37.3104766 8.87174867,37.2010085 9.08774895,37.0821574 C12.2475245,35.3963489 15.4073,33.7136681 18.5547327,32.005966 C18.9743904,31.7776468 19.2953051,31.7839021 19.711877,32.0090936 C22.8593097,33.7167957 26.0190852,35.4026043 29.1788608,37.0852851 C29.4843469,37.2479234 29.8021759,37.4043064 30.129262,37.4887532 C30.6908627,37.6357532 31.125949,37.407434 31.267892,36.8319447 C31.3542922,36.4816468 31.3604636,36.084434 31.3018349,35.7247532 C30.7062913,32.0966681 30.1014905,28.4717106 29.4627468,24.8498809 C29.3701753,24.3087957 29.5059469,23.9772638 29.8793188,23.6144553 C32.0701788,21.4845191 34.2394388,19.3326894 36.405613,17.1808596 C36.985728,16.6022426 37.5843574,16.0330085 38.081158,15.385583 C38.596473,14.7131362 38.3619584,14.0907319 37.5751002,13.7998596 C37.3467571,13.7154128 37.0998996,13.6653702 36.8592136,13.6278383 C33.2520089,13.0867532 29.6448042,12.5613064 26.043771,11.9920723 C25.7444563,11.9451574 25.3679987,11.6793064 25.2322271,11.4072 C23.6183964,8.1732 22.0446801,4.91417872 20.4586209,1.66454043 C20.1654776,1.06715745 19.9463916,0.316519149 19.1441049,0.30713617 C18.2924466,0.297753191 18.0826178,1.0859234 17.7802174,1.7052 C16.1941582,4.9548383 14.6173561,8.21073191 13.0096969,11.4478596 C12.8893539,11.6886894 12.5746106,11.9389021 12.3154103,11.9826894 C10.5904938,12.2735617 8.85632008,12.5081362 7.12831783,12.7646043 C5.12877238,13.0617319 3.1261412,13.3307106 1.14202434,13.6903915 C0.716195216,13.768583 0.136080177,14.1157532 0.0219085999,14.4723064 C-0.092262977,14.8257319 0.268766063,15.3543064 0.463166316,15.7859234 C0.540309273,15.9579447 0.728538089,16.0767957 0.870481131,16.2175404 C3.3791701,18.6946468 5.88168764,21.1780085 8.40271949,23.6457319 C8.75140565,23.9866468 8.89643441,24.2962851 8.79769143,24.8154766 C8.43666239,26.7327319 8.13734771,28.6593702 7.81026157,30.5828809 C7.48934687,32.4813702 7.16843217,34.3798596 6.86294606,36.1876468" id="Fill-1"></path>
                            </g>
                            <g id="Group-6" transform="translate(0.000000, 0.331474)" fill="#F6B40F">
                                <path d="M6.86294606,36.1876468 C7.16843217,34.3798596 7.48934687,32.4813702 7.81026157,30.5828809 C8.13734771,28.6593702 8.43666239,26.7327319 8.79769143,24.8154766 C8.89643441,24.2962851 8.75140565,23.9866468 8.40271949,23.6457319 C5.88168764,21.1780085 3.3791701,18.6946468 0.870481131,16.2175404 C0.728538089,16.0767957 0.540309273,15.9579447 0.463166316,15.7859234 C0.268766063,15.3543064 -0.092262977,14.8257319 0.0219085999,14.4723064 C0.136080177,14.1157532 0.716195216,13.768583 1.14202434,13.6903915 C3.1261412,13.3307106 5.12877238,13.0617319 7.12831783,12.7646043 C8.85632008,12.5081362 10.5904938,12.2735617 12.3154103,11.9826894 C12.5746106,11.9389021 12.8893539,11.6886894 13.0096969,11.4478596 C14.6173561,8.21073191 16.1941582,4.9548383 17.7802174,1.7052 C18.0826178,1.0859234 18.2924466,0.297753191 19.1441049,0.30713617 C19.9463916,0.316519149 20.1654776,1.06715745 20.4586209,1.66454043 C22.0446801,4.91417872 23.6183964,8.1732 25.2322271,11.4072 C25.3679987,11.6793064 25.7444563,11.9451574 26.043771,11.9920723 C29.6448042,12.5613064 33.2520089,13.0867532 36.8592136,13.6278383 C37.0998996,13.6653702 37.3467571,13.7154128 37.5751002,13.7998596 C38.3619584,14.0907319 38.596473,14.7131362 38.081158,15.385583 C37.5843574,16.0330085 36.985728,16.6022426 36.405613,17.1808596 C34.2394388,19.3326894 32.0701788,21.4845191 29.8793188,23.6144553 C29.5059469,23.9772638 29.3701753,24.3087957 29.4627468,24.8498809 C30.1014905,28.4717106 30.7062913,32.0966681 31.3018349,35.7247532 C31.3604636,36.084434 31.3542922,36.4816468 31.267892,36.8319447 C31.125949,37.407434 30.6908627,37.6357532 30.129262,37.4887532 C29.8021759,37.4043064 29.4843469,37.2479234 29.1788608,37.0852851 C26.0190852,35.4026043 22.8593097,33.7167957 19.711877,32.0090936 C19.2953051,31.7839021 18.9743904,31.7776468 18.5547327,32.005966 C15.4073,33.7136681 12.2475245,35.3963489 9.08774895,37.0821574 C8.87174867,37.2010085 8.64649123,37.3104766 8.41814808,37.3949234 C7.48934687,37.7483489 6.85060318,37.2854553 6.86294606,36.1876468" id="Fill-4"></path>
                            </g>
                            <g id="Group-9" transform="translate(45.641504, 0.331474)" fill="#F6B40F">
                                <path d="M7.0165877,36.1876468 C7.00424483,37.2854553 7.64298852,37.7483489 8.57178972,37.3949234 C8.80013288,37.3104766 9.02539031,37.2010085 9.24139059,37.0821574 C12.4011661,35.3963489 15.5609417,33.7136681 18.7083743,32.005966 C19.128032,31.7776468 19.4489467,31.7839021 19.8655187,32.0090936 C23.0129513,33.7167957 26.1727269,35.4026043 29.3325024,37.0852851 C29.6379885,37.2479234 29.9558175,37.4043064 30.2829036,37.4887532 C30.8445044,37.6357532 31.2795906,37.407434 31.4215337,36.8319447 C31.5079338,36.4816468 31.5141052,36.084434 31.4554766,35.7247532 C30.859933,32.0966681 30.2551322,28.4717106 29.6163885,24.8498809 C29.5238169,24.3087957 29.6595885,23.9772638 30.0329605,23.6144553 C32.2238204,21.4845191 34.3930804,19.3326894 36.5592546,17.1808596 C37.1393697,16.6022426 37.737999,16.0330085 38.2347997,15.385583 C38.7501146,14.7131362 38.5156,14.0907319 37.7287419,13.7998596 C37.5003987,13.7154128 37.2535413,13.6653702 37.0128552,13.6278383 C33.4056506,13.0867532 29.7984459,12.5613064 26.1974126,11.9920723 C25.8980979,11.9451574 25.5216403,11.6793064 25.3858687,11.4072 C23.772038,8.1732 22.1983217,4.91417872 20.6122625,1.66454043 C20.3191193,1.06715745 20.1000333,0.316519149 19.2977465,0.30713617 C18.4460883,0.297753191 18.2362594,1.0859234 17.933859,1.7052 C16.3477998,4.9548383 14.7709978,8.21073191 13.1633385,11.4478596 C13.0429955,11.6886894 12.7282523,11.9389021 12.4690519,11.9826894 C10.7441354,12.2735617 9.00996172,12.5081362 7.28195947,12.7646043 C5.28549974,13.0617319 3.27978285,13.3307106 1.29566598,13.6903915 C0.86983686,13.768583 0.289721821,14.1157532 0.175550244,14.4723064 C0.0613786669,14.8257319 0.422407707,15.3543064 0.61680796,15.7859234 C0.693950917,15.9579447 0.882179733,16.0767957 1.02412277,16.2175404 C3.53281175,18.6946468 6.03532928,21.1780085 8.55636113,23.6457319 C8.9050473,23.9866468 9.05007606,24.2962851 8.95441879,24.8154766 C8.59030403,26.7327319 8.29098936,28.6593702 7.96390322,30.5828809 C7.64607423,32.4813702 7.32207381,34.3798596 7.0165877,36.1876468" id="Fill-7"></path>
                            </g>
                            <g id="Group-12" transform="translate(45.641504, 0.331474)" fill="#F6B40F">
                                <path d="M7.0165877,36.1876468 C7.32207381,34.3798596 7.64607423,32.4813702 7.96390322,30.5828809 C8.29098936,28.6593702 8.59030403,26.7327319 8.95441879,24.8154766 C9.05007606,24.2962851 8.9050473,23.9866468 8.55636113,23.6457319 C6.03532928,21.1780085 3.53281175,18.6946468 1.02412277,16.2175404 C0.882179733,16.0767957 0.693950917,15.9579447 0.61680796,15.7859234 C0.422407707,15.3543064 0.0613786669,14.8257319 0.175550244,14.4723064 C0.289721821,14.1157532 0.86983686,13.768583 1.29566598,13.6903915 C3.27978285,13.3307106 5.28549974,13.0617319 7.28195947,12.7646043 C9.00996172,12.5081362 10.7441354,12.2735617 12.4690519,11.9826894 C12.7282523,11.9389021 13.0429955,11.6886894 13.1633385,11.4478596 C14.7709978,8.21073191 16.3477998,4.9548383 17.933859,1.7052 C18.2362594,1.0859234 18.4460883,0.297753191 19.2977465,0.30713617 C20.1000333,0.316519149 20.3191193,1.06715745 20.6122625,1.66454043 C22.1983217,4.91417872 23.772038,8.1732 25.3858687,11.4072 C25.5216403,11.6793064 25.8980979,11.9451574 26.1974126,11.9920723 C29.7984459,12.5613064 33.4056506,13.0867532 37.0128552,13.6278383 C37.2535413,13.6653702 37.5003987,13.7154128 37.7287419,13.7998596 C38.5156,14.0907319 38.7501146,14.7131362 38.2347997,15.385583 C37.737999,16.0330085 37.1393697,16.6022426 36.5592546,17.1808596 C34.3930804,19.3326894 32.2238204,21.4845191 30.0329605,23.6144553 C29.6595885,23.9772638 29.5238169,24.3087957 29.6163885,24.8498809 C30.2551322,28.4717106 30.859933,32.0966681 31.4554766,35.7247532 C31.5141052,36.084434 31.5079338,36.4816468 31.4215337,36.8319447 C31.2795906,37.407434 30.8445044,37.6357532 30.2829036,37.4887532 C29.9558175,37.4043064 29.6379885,37.2479234 29.3325024,37.0852851 C26.1727269,35.4026043 23.0129513,33.7167957 19.8655187,32.0090936 C19.4489467,31.7839021 19.128032,31.7776468 18.7083743,32.005966 C15.5609417,33.7136681 12.4011661,35.3963489 9.24139059,37.0821574 C9.02539031,37.2010085 8.80013288,37.3104766 8.57178972,37.3949234 C7.64298852,37.7483489 7.00424483,37.2854553 7.0165877,36.1876468" id="Fill-10"></path>
                            </g>
                            <g id="Group-15" transform="translate(91.113462, 0.331474)" fill="#F6B40F">
                                <path d="M7.34008288,36.1876468 C7.32774001,37.2854553 7.96648369,37.7483489 8.8952849,37.3949234 C9.12362805,37.3104766 9.34888549,37.2010085 9.56488577,37.0821574 C12.7246613,35.3963489 15.8844368,33.7136681 19.0318695,32.005966 C19.4515272,31.7776468 19.7724419,31.7839021 20.1890139,32.0090936 C23.3364465,33.7167957 26.496222,35.4026043 29.6559976,37.0852851 C29.9614837,37.2479234 30.2793127,37.4043064 30.6063988,37.4887532 C31.1679995,37.6357532 31.6030858,37.407434 31.7450289,36.8319447 C31.831429,36.4816468 31.8376004,36.084434 31.7789718,35.7247532 C31.1834281,32.0966681 30.5786274,28.4717106 29.9429694,24.8498809 C29.8473121,24.3087957 29.9830837,23.9772638 30.3564556,23.6144553 C32.5473156,21.4845191 34.7165756,19.3326894 36.8827498,17.1808596 C37.4628649,16.6022426 38.0614942,16.0330085 38.5582949,15.385583 C39.0736098,14.7131362 38.8390952,14.0907319 38.0522371,13.7998596 C37.8238939,13.7154128 37.5770364,13.6653702 37.3363504,13.6278383 C33.7291457,13.0867532 30.121941,12.5613064 26.5209078,11.9920723 C26.2215931,11.9451574 25.8451355,11.6793064 25.7093639,11.4072 C24.0955332,8.1732 22.5218169,4.91417872 20.9357577,1.66454043 C20.6426144,1.06715745 20.4235284,0.316519149 19.6212417,0.30713617 C18.7695834,0.297753191 18.5597546,1.0859234 18.2573542,1.7052 C16.671295,4.9548383 15.094493,8.21073191 13.4868337,11.4478596 C13.3664907,11.6886894 13.0517474,11.9389021 12.7925471,11.9826894 C11.0676306,12.2735617 9.3334569,12.5081362 7.60545465,12.7646043 C5.60899492,13.0617319 3.60327802,13.3307106 1.61916116,13.6903915 C1.19333204,13.768583 0.613216998,14.1157532 0.499045421,14.4723064 C0.384873844,14.8257319 0.745902884,15.3543064 0.940303137,15.7859234 C1.01744609,15.9579447 1.20567491,16.0767957 1.34761795,16.2175404 C3.85630692,18.6946468 6.35882446,21.1780085 8.87985631,23.6457319 C9.22854247,23.9866468 9.37357123,24.2962851 9.27791397,24.8154766 C8.91379921,26.7327319 8.61448453,28.6593702 8.28739839,30.5828809 C7.96956941,32.4813702 7.64556899,34.3798596 7.34008288,36.1876468" id="Fill-13"></path>
                            </g>
                            <g id="Group-18" transform="translate(91.113462, 0.331474)" fill="#F6B40F">
                                <path d="M7.34008288,36.1876468 C7.64556899,34.3798596 7.96956941,32.4813702 8.28739839,30.5828809 C8.61448453,28.6593702 8.91379921,26.7327319 9.27791397,24.8154766 C9.37357123,24.2962851 9.22854247,23.9866468 8.87985631,23.6457319 C6.35882446,21.1780085 3.85630692,18.6946468 1.34761795,16.2175404 C1.20567491,16.0767957 1.01744609,15.9579447 0.940303137,15.7859234 C0.745902884,15.3543064 0.384873844,14.8257319 0.499045421,14.4723064 C0.613216998,14.1157532 1.19333204,13.768583 1.61916116,13.6903915 C3.60327802,13.3307106 5.60899492,13.0617319 7.60545465,12.7646043 C9.3334569,12.5081362 11.0676306,12.2735617 12.7925471,11.9826894 C13.0517474,11.9389021 13.3664907,11.6886894 13.4868337,11.4478596 C15.094493,8.21073191 16.671295,4.9548383 18.2573542,1.7052 C18.5597546,1.0859234 18.7695834,0.297753191 19.6212417,0.30713617 C20.4235284,0.316519149 20.6426144,1.06715745 20.9357577,1.66454043 C22.5218169,4.91417872 24.0955332,8.1732 25.7093639,11.4072 C25.8451355,11.6793064 26.2215931,11.9451574 26.5209078,11.9920723 C30.121941,12.5613064 33.7291457,13.0867532 37.3363504,13.6278383 C37.5770364,13.6653702 37.8238939,13.7154128 38.0522371,13.7998596 C38.8390952,14.0907319 39.0736098,14.7131362 38.5582949,15.385583 C38.0614942,16.0330085 37.4628649,16.6022426 36.8827498,17.1808596 C34.7165756,19.3326894 32.5473156,21.4845191 30.3564556,23.6144553 C29.9830837,23.9772638 29.8473121,24.3087957 29.9429694,24.8498809 C30.5786274,28.4717106 31.1834281,32.0966681 31.7789718,35.7247532 C31.8376004,36.084434 31.831429,36.4816468 31.7450289,36.8319447 C31.6030858,37.407434 31.1679995,37.6357532 30.6063988,37.4887532 C30.2793127,37.4043064 29.9614837,37.2479234 29.6559976,37.0852851 C26.496222,35.4026043 23.3364465,33.7167957 20.1890139,32.0090936 C19.7724419,31.7839021 19.4515272,31.7776468 19.0318695,32.005966 C15.8844368,33.7136681 12.7246613,35.3963489 9.56488577,37.0821574 C9.34888549,37.2010085 9.12362805,37.3104766 8.8952849,37.3949234 C7.96648369,37.7483489 7.32774001,37.2854553 7.34008288,36.1876468" id="Fill-16"></path>
                            </g>
                            <g id="Group-21" transform="translate(136.585421, 0.331474)" fill="#F6B40F">
                                <path d="M7.66357806,36.1876468 C7.65123518,37.2854553 8.28997887,37.7483489 9.21878008,37.3949234 C9.44712323,37.3104766 9.67238066,37.2010085 9.88838095,37.0821574 C13.0481565,35.3963489 16.207932,33.7136681 19.3553647,32.005966 C19.7750224,31.7776468 20.0959371,31.7839021 20.512509,32.0090936 C23.6599417,33.7167957 26.8197172,35.4026043 29.9794928,37.0852851 C30.2849789,37.2479234 30.6028079,37.4043064 30.929894,37.4887532 C31.4914947,37.6357532 31.926581,37.407434 32.068524,36.8319447 C32.1549242,36.4816468 32.1610956,36.084434 32.1024669,35.7247532 C31.5069233,32.0966681 30.9021225,28.4717106 30.2633788,24.8498809 C30.1708073,24.3087957 30.3065789,23.9772638 30.6799508,23.6144553 C32.8708108,21.4845191 35.0400708,19.3326894 37.206245,17.1808596 C37.78636,16.6022426 38.3849894,16.0330085 38.88179,15.385583 C39.397105,14.7131362 39.1625904,14.0907319 38.3757322,13.7998596 C38.1473891,13.7154128 37.9005316,13.6653702 37.6598456,13.6278383 C34.0526409,13.0867532 30.4454362,12.5613064 26.844403,11.9920723 C26.5450883,11.9451574 26.1686307,11.6793064 26.0328591,11.4072 C24.4190284,8.1732 22.8453121,4.91417872 21.2592529,1.66454043 C20.9661096,1.06715745 20.7470236,0.316519149 19.9447369,0.30713617 C19.0930786,0.297753191 18.8832498,1.0859234 18.5808494,1.7052 C16.9947902,4.9548383 15.4179881,8.21073191 13.8103289,11.4478596 C13.6899859,11.6886894 13.3752426,11.9389021 13.1160423,11.9826894 C11.3911258,12.2735617 9.65695207,12.5081362 7.92894983,12.7646043 C5.92940437,13.0617319 3.9267732,13.3307106 1.94265634,13.6903915 C1.51682721,13.768583 0.936712174,14.1157532 0.822540598,14.4723064 C0.708369021,14.8257319 1.06939806,15.3543064 1.26379831,15.7859234 C1.34094127,15.9579447 1.52917009,16.0767957 1.67111313,16.2175404 C4.1798021,18.6946468 6.68231964,21.1780085 9.20335148,23.6457319 C9.55203765,23.9866468 9.69706641,24.2962851 9.59832343,24.8154766 C9.23729439,26.7327319 8.93797971,28.6593702 8.61089357,30.5828809 C8.28997887,32.4813702 7.96906417,34.3798596 7.66357806,36.1876468" id="Fill-19"></path>
                            </g>
                            <g id="Group-24" transform="translate(136.515152, 0.000000)" fill="#F6B40F">
                                <path d="M7.66357806,36.1876468 C7.96906417,34.3798596 8.28997887,32.4813702 8.61089357,30.5828809 C8.93797971,28.6593702 9.23729439,26.7327319 9.59832343,24.8154766 C9.69706641,24.2962851 9.55203765,23.9866468 9.20335148,23.6457319 C6.68231964,21.1780085 4.1798021,18.6946468 1.67111313,16.2175404 C1.52917009,16.0767957 1.34094127,15.9579447 1.26379831,15.7859234 C1.06939806,15.3543064 0.708369021,14.8257319 0.822540598,14.4723064 C0.936712174,14.1157532 1.51682721,13.768583 1.94265634,13.6903915 C3.9267732,13.3307106 5.92940437,13.0617319 7.92894983,12.7646043 C9.65695207,12.5081362 11.3911258,12.2735617 13.1160423,11.9826894 C13.3752426,11.9389021 13.6899859,11.6886894 13.8103289,11.4478596 C15.4179881,8.21073191 16.9947902,4.9548383 18.5808494,1.7052 C18.8832498,1.0859234 19.0930786,0.297753191 19.9447369,0.30713617 C20.7470236,0.316519149 20.9661096,1.06715745 21.2592529,1.66454043 C22.8453121,4.91417872 24.4190284,8.1732 26.0328591,11.4072 C26.1686307,11.6793064 26.5450883,11.9451574 26.844403,11.9920723 C30.4454362,12.5613064 34.0526409,13.0867532 37.6598456,13.6278383 C37.9005316,13.6653702 38.1473891,13.7154128 38.3757322,13.7998596 C39.1625904,14.0907319 39.397105,14.7131362 38.88179,15.385583 C38.3849894,16.0330085 37.78636,16.6022426 37.206245,17.1808596 C35.0400708,19.3326894 32.8708108,21.4845191 30.6799508,23.6144553 C30.3065789,23.9772638 30.1708073,24.3087957 30.2633788,24.8498809 C30.9021225,28.4717106 31.5069233,32.0966681 32.1024669,35.7247532 C32.1610956,36.084434 32.1549242,36.4816468 32.068524,36.8319447 C31.926581,37.407434 31.4914947,37.6357532 30.929894,37.4887532 C30.6028079,37.4043064 30.2849789,37.2479234 29.9794928,37.0852851 C26.8197172,35.4026043 23.6599417,33.7167957 20.512509,32.0090936 C20.0959371,31.7839021 19.7750224,31.7776468 19.3553647,32.005966 C16.207932,33.7136681 13.0481565,35.3963489 9.88838095,37.0821574 C9.67238066,37.2010085 9.44712323,37.3104766 9.21878008,37.3949234 C8.28997887,37.7483489 7.65123518,37.2854553 7.66357806,36.1876468" id="Fill-22"></path>
                            </g>
                            <g id="Group-24-Copy" transform="translate(179.343434, 0.000000)" fill="#F6B40F">
                                <path d="M7.66357806,36.1876468 C7.96906417,34.3798596 8.28997887,32.4813702 8.61089357,30.5828809 C8.93797971,28.6593702 9.23729439,26.7327319 9.59832343,24.8154766 C9.69706641,24.2962851 9.55203765,23.9866468 9.20335148,23.6457319 C6.68231964,21.1780085 4.1798021,18.6946468 1.67111313,16.2175404 C1.52917009,16.0767957 1.34094127,15.9579447 1.26379831,15.7859234 C1.06939806,15.3543064 0.708369021,14.8257319 0.822540598,14.4723064 C0.936712174,14.1157532 1.51682721,13.768583 1.94265634,13.6903915 C3.9267732,13.3307106 5.92940437,13.0617319 7.92894983,12.7646043 C9.65695207,12.5081362 11.3911258,12.2735617 13.1160423,11.9826894 C13.3752426,11.9389021 13.6899859,11.6886894 13.8103289,11.4478596 C15.4179881,8.21073191 16.9947902,4.9548383 18.5808494,1.7052 C18.8832498,1.0859234 19.0930786,0.297753191 19.9447369,0.30713617 C20.7470236,0.316519149 20.9661096,1.06715745 21.2592529,1.66454043 C22.8453121,4.91417872 24.4190284,8.1732 26.0328591,11.4072 C26.1686307,11.6793064 26.5450883,11.9451574 26.844403,11.9920723 C30.4454362,12.5613064 34.0526409,13.0867532 37.6598456,13.6278383 C37.9005316,13.6653702 38.1473891,13.7154128 38.3757322,13.7998596 C39.1625904,14.0907319 39.397105,14.7131362 38.88179,15.385583 C38.3849894,16.0330085 37.78636,16.6022426 37.206245,17.1808596 C35.0400708,19.3326894 32.8708108,21.4845191 30.6799508,23.6144553 C30.3065789,23.9772638 30.1708073,24.3087957 30.2633788,24.8498809 C30.9021225,28.4717106 31.5069233,32.0966681 32.1024669,35.7247532 C32.1610956,36.084434 32.1549242,36.4816468 32.068524,36.8319447 C31.926581,37.407434 31.4914947,37.6357532 30.929894,37.4887532 C30.6028079,37.4043064 30.2849789,37.2479234 29.9794928,37.0852851 C26.8197172,35.4026043 23.6599417,33.7167957 20.512509,32.0090936 C20.0959371,31.7839021 19.7750224,31.7776468 19.3553647,32.005966 C16.207932,33.7136681 13.0481565,35.3963489 9.88838095,37.0821574 C9.67238066,37.2010085 9.44712323,37.3104766 9.21878008,37.3949234 C8.28997887,37.7483489 7.65123518,37.2854553 7.66357806,36.1876468" id="Fill-22"></path>
                            </g>
                            <g id="Group-27" transform="translate(0.000000, 0.331474)">
                                <mask id="mask-2" fill="white">
                                    <use xlink:href="#path-1"></use>
                                </mask>
                                <g id="Clip-26"></g>
                                <path d="M190.044144,36.1876468 C190.031801,37.2854553 190.670545,37.7483489 191.599346,37.3949234 C191.827689,37.3104766 192.052947,37.2010085 192.268947,37.0821574 C195.428722,35.3963489 198.588498,33.7136681 201.735931,32.005966 C202.155588,31.7776468 202.476503,31.7839021 202.893075,32.0090936 C206.040508,33.7167957 209.200283,35.4026043 212.360059,37.0852851 C212.665545,37.2479234 212.983374,37.4043064 213.31046,37.4887532 C213.872061,37.6357532 214.307147,37.407434 214.44909,36.8319447 C214.53549,36.4816468 214.541662,36.084434 214.483033,35.7247532 C213.887489,32.0966681 213.282688,28.4717106 212.643945,24.8498809 C212.551373,24.3087957 212.687145,23.9772638 213.060517,23.6144553 C215.251377,21.4845191 217.420637,19.3326894 219.586811,17.1808596 C220.166926,16.6022426 220.765555,16.0330085 221.262356,15.385583 C221.777671,14.7131362 221.543156,14.0907319 220.756298,13.7998596 C220.527955,13.7154128 220.281098,13.6653702 220.040412,13.6278383 C216.433207,13.0867532 212.826002,12.5613064 209.224969,11.9920723 C208.925654,11.9451574 208.549197,11.6793064 208.413425,11.4072 C206.799594,8.1732 205.225878,4.91417872 203.639819,1.66454043 C203.346676,1.06715745 203.12759,0.316519149 202.325303,0.30713617 C201.473645,0.297753191 201.263816,1.0859234 200.961415,1.7052 C199.375356,4.9548383 197.798554,8.21073191 196.190895,11.4478596 C196.070552,11.6886894 195.755809,11.9389021 195.496608,11.9826894 C193.771692,12.2735617 192.037518,12.5081362 190.309516,12.7646043 C188.313056,13.0617319 186.307339,13.3307106 184.323222,13.6903915 C183.897393,13.768583 183.317278,14.1157532 183.203107,14.4723064 C183.088935,14.8257319 183.449964,15.3543064 183.644364,15.7859234 C183.721507,15.9579447 183.909736,16.0767957 184.051679,16.2175404 C186.560368,18.6946468 189.062886,21.1780085 191.583917,23.6457319 C191.932604,23.9866468 192.077632,24.2962851 191.981975,24.8154766 C191.61786,26.7327319 191.318546,28.6593702 190.99146,30.5828809 C190.673631,32.4813702 190.34963,34.3798596 190.044144,36.1876468" id="Fill-25" fill="#FFD600" mask="url(#mask-2)"></path>
                            </g>
                            <g id="Group-30">
                                <mask id="mask-4" fill="white">
                                    <use xlink:href="#path-3"></use>
                                </mask>
                                <g id="Clip-29"></g>
                            </g>
                            <g id="Group-30-Copy" transform="translate(42.828283, 0.000000)">
                                <mask id="mask-6" fill="white">
                                    <use xlink:href="#path-5"></use>
                                </mask>
                                <g id="Clip-29"></g>
                            </g>
                        </g>
                    </g>
                </g>
            </g>
        </g>
    </g>
</svg>